<mxfile host="65bd71144e">
    <diagram id="5qJQTNvJ1vmOPp7BA-h0" name="diagram">
        <mxGraphModel dx="933" dy="606" grid="0" gridSize="10" guides="1" tooltips="1" connect="1" arrows="1" fold="1" page="1" pageScale="1" pageWidth="850" pageHeight="1100" math="0" shadow="0">
            <root>
                <mxCell id="0"/>
                <mxCell id="1" parent="0"/>
                <mxCell id="Q099LvCUEqJmxr-4RxnZ-1" style="edgeStyle=none;html=1;" parent="1" source="Q099LvCUEqJmxr-4RxnZ-2" target="Q099LvCUEqJmxr-4RxnZ-4" edge="1">
                    <mxGeometry relative="1" as="geometry"/>
                </mxCell>
                <mxCell id="Q099LvCUEqJmxr-4RxnZ-2" value="" style="ellipse;fillColor=#000000;strokeColor=none;" parent="1" vertex="1">
                    <mxGeometry x="210" y="70" width="30" height="30" as="geometry"/>
                </mxCell>
                <mxCell id="Q099LvCUEqJmxr-4RxnZ-3" style="edgeStyle=none;html=1;entryX=0.5;entryY=0;entryDx=0;entryDy=0;" parent="1" source="Q099LvCUEqJmxr-4RxnZ-4" target="Q099LvCUEqJmxr-4RxnZ-24" edge="1">
                    <mxGeometry relative="1" as="geometry">
                        <mxPoint x="225" y="250" as="targetPoint"/>
                    </mxGeometry>
                </mxCell>
                <mxCell id="Q099LvCUEqJmxr-4RxnZ-4" value="&lt;div style=&quot;color: rgb(212 , 212 , 212) ; font-family: &amp;#34;droid sans mono&amp;#34; , &amp;#34;monospace&amp;#34; , monospace ; line-height: 22px&quot;&gt;&lt;div style=&quot;color: rgb(56 , 58 , 66) ; font-family: &amp;#34;jetbrainsmono nerd font mono&amp;#34; , monospace , &amp;#34;consolas&amp;#34; , &amp;#34;courier new&amp;#34; , monospace ; line-height: 18px&quot;&gt;&lt;span style=&quot;font-family: &amp;#34;droid sans mono&amp;#34; , &amp;#34;monospace&amp;#34; , monospace ; text-align: left ; color: rgb(215 , 58 , 73)&quot;&gt;int&lt;/span&gt;&lt;span style=&quot;color: rgb(0 , 0 , 0) ; font-family: &amp;#34;droid sans mono&amp;#34; , &amp;#34;monospace&amp;#34; , monospace ; text-align: left&quot;&gt;&amp;nbsp;seconds =&amp;nbsp;&lt;/span&gt;&lt;span style=&quot;font-family: &amp;#34;droid sans mono&amp;#34; , &amp;#34;monospace&amp;#34; , monospace ; text-align: left ; color: rgb(0 , 92 , 197)&quot;&gt;this&lt;/span&gt;&lt;span style=&quot;color: rgb(0 , 0 , 0) ; font-family: &amp;#34;droid sans mono&amp;#34; , &amp;#34;monospace&amp;#34; , monospace ; text-align: left&quot;&gt;.secondsToday;&lt;/span&gt;&lt;br&gt;&lt;/div&gt;&lt;/div&gt;" style="rounded=1;whiteSpace=wrap;html=1;" parent="1" vertex="1">
                    <mxGeometry x="100" y="150" width="250" height="60" as="geometry"/>
                </mxCell>
                <mxCell id="Q099LvCUEqJmxr-4RxnZ-5" style="edgeStyle=none;html=1;exitX=0.5;exitY=1;exitDx=0;exitDy=0;entryX=0.5;entryY=0;entryDx=0;entryDy=0;" parent="1" source="Q099LvCUEqJmxr-4RxnZ-24" target="Q099LvCUEqJmxr-4RxnZ-7" edge="1">
                    <mxGeometry relative="1" as="geometry">
                        <mxPoint x="225" y="430" as="sourcePoint"/>
                        <mxPoint x="225" y="390" as="targetPoint"/>
                    </mxGeometry>
                </mxCell>
                <mxCell id="Q099LvCUEqJmxr-4RxnZ-6" style="edgeStyle=none;html=1;entryX=0;entryY=0.5;entryDx=0;entryDy=0;" parent="1" edge="1">
                    <mxGeometry relative="1" as="geometry">
                        <mxPoint x="355" y="299.9999999999998" as="sourcePoint"/>
                        <mxPoint x="530.0000000000005" y="300" as="targetPoint"/>
                    </mxGeometry>
                </mxCell>
                <mxCell id="vGKFlbqT59KIqbNa6LfE-2" value="" style="edgeStyle=none;html=1;fontSize=12;" parent="1" source="Q099LvCUEqJmxr-4RxnZ-7" target="Q099LvCUEqJmxr-4RxnZ-27" edge="1">
                    <mxGeometry relative="1" as="geometry"/>
                </mxCell>
                <mxCell id="Q099LvCUEqJmxr-4RxnZ-7" value="&lt;div style=&quot;color: rgb(56 , 58 , 66) ; font-family: &amp;#34;jetbrainsmono nerd font mono&amp;#34; , monospace , &amp;#34;consolas&amp;#34; , &amp;#34;courier new&amp;#34; , monospace ; line-height: 18px&quot;&gt;&lt;span style=&quot;color: rgb(166 , 38 , 164)&quot;&gt;return&lt;/span&gt;&amp;nbsp;seconds;&lt;br&gt;&lt;/div&gt;" style="rounded=1;whiteSpace=wrap;html=1;" parent="1" vertex="1">
                    <mxGeometry x="100" y="460" width="250" height="60" as="geometry"/>
                </mxCell>
                <mxCell id="Q099LvCUEqJmxr-4RxnZ-8" value="&lt;div style=&quot;text-align: left&quot;&gt;&lt;span style=&quot;font-size: 13px&quot;&gt;def =&amp;nbsp; {seconds}&lt;/span&gt;&lt;/div&gt;&lt;font style=&quot;font-size: 13px&quot;&gt;&lt;div style=&quot;text-align: left&quot;&gt;&lt;span&gt;c-use = {secondsToday}&lt;/span&gt;&lt;/div&gt;&lt;div style=&quot;text-align: left&quot;&gt;&lt;span&gt;p-use = {}&lt;/span&gt;&lt;/div&gt;&lt;/font&gt;" style="text;html=1;align=center;verticalAlign=middle;resizable=0;points=[];autosize=1;strokeColor=none;fillColor=none;fontSize=12;" parent="1" vertex="1">
                    <mxGeometry x="370" y="155" width="150" height="50" as="geometry"/>
                </mxCell>
                <mxCell id="Q099LvCUEqJmxr-4RxnZ-11" value="&lt;div style=&quot;text-align: left&quot;&gt;&lt;span style=&quot;font-size: 13px&quot;&gt;def =&amp;nbsp; {secondsToday}&lt;/span&gt;&lt;/div&gt;&lt;font style=&quot;font-size: 13px&quot;&gt;&lt;div style=&quot;text-align: left&quot;&gt;&lt;span&gt;c-use = {}&lt;/span&gt;&lt;/div&gt;&lt;div style=&quot;text-align: left&quot;&gt;&lt;span&gt;p-use = {}&lt;/span&gt;&lt;/div&gt;&lt;/font&gt;" style="text;html=1;align=center;verticalAlign=middle;resizable=0;points=[];autosize=1;strokeColor=none;fillColor=none;fontSize=12;" parent="1" vertex="1">
                    <mxGeometry x="260" y="60" width="140" height="50" as="geometry"/>
                </mxCell>
                <mxCell id="Q099LvCUEqJmxr-4RxnZ-12" value="&lt;font style=&quot;font-size: 14px&quot;&gt;0&lt;/font&gt;" style="text;html=1;strokeColor=default;fillColor=none;align=center;verticalAlign=middle;whiteSpace=wrap;rounded=0;" parent="1" vertex="1">
                    <mxGeometry x="160" y="70" width="30" height="30" as="geometry"/>
                </mxCell>
                <mxCell id="Q099LvCUEqJmxr-4RxnZ-13" value="&lt;div style=&quot;text-align: left&quot;&gt;&lt;span style=&quot;font-size: 13px&quot;&gt;def =&amp;nbsp; {}&lt;/span&gt;&lt;/div&gt;&lt;font style=&quot;font-size: 13px&quot;&gt;&lt;div style=&quot;text-align: left&quot;&gt;&lt;span&gt;c-use = {}&lt;/span&gt;&lt;/div&gt;&lt;div style=&quot;text-align: left&quot;&gt;&lt;span&gt;p-use = {}&lt;/span&gt;&lt;/div&gt;&lt;/font&gt;" style="text;html=1;align=center;verticalAlign=middle;resizable=0;points=[];autosize=1;strokeColor=none;fillColor=none;fontSize=12;" parent="1" vertex="1">
                    <mxGeometry x="312" y="236" width="70" height="50" as="geometry"/>
                </mxCell>
                <mxCell id="Q099LvCUEqJmxr-4RxnZ-14" value="&lt;font style=&quot;font-size: 14px&quot;&gt;1&lt;/font&gt;" style="text;html=1;strokeColor=default;fillColor=none;align=center;verticalAlign=middle;whiteSpace=wrap;rounded=0;" parent="1" vertex="1">
                    <mxGeometry x="50" y="165" width="30" height="30" as="geometry"/>
                </mxCell>
                <mxCell id="Q099LvCUEqJmxr-4RxnZ-15" value="&lt;font style=&quot;font-size: 14px&quot;&gt;2&lt;/font&gt;" style="text;html=1;strokeColor=default;fillColor=none;align=center;verticalAlign=middle;whiteSpace=wrap;rounded=0;" parent="1" vertex="1">
                    <mxGeometry x="50" y="285" width="30" height="30" as="geometry"/>
                </mxCell>
                <mxCell id="Q099LvCUEqJmxr-4RxnZ-16" value="&lt;font style=&quot;font-size: 14px&quot;&gt;6&lt;/font&gt;" style="text;html=1;strokeColor=default;fillColor=none;align=center;verticalAlign=middle;whiteSpace=wrap;rounded=0;" parent="1" vertex="1">
                    <mxGeometry x="50" y="405" width="30" height="30" as="geometry"/>
                </mxCell>
                <mxCell id="Q099LvCUEqJmxr-4RxnZ-18" value="&lt;span style=&quot;font-size: 14px&quot;&gt;3&lt;/span&gt;" style="text;html=1;strokeColor=default;fillColor=none;align=center;verticalAlign=middle;whiteSpace=wrap;rounded=0;" parent="1" vertex="1">
                    <mxGeometry x="530" y="236" width="30" height="30" as="geometry"/>
                </mxCell>
                <mxCell id="Q099LvCUEqJmxr-4RxnZ-19" value="&lt;b&gt;false&lt;/b&gt;" style="text;html=1;strokeColor=none;fillColor=none;align=center;verticalAlign=middle;whiteSpace=wrap;rounded=0;fontSize=14;" parent="1" vertex="1">
                    <mxGeometry x="220" y="360" width="60" height="30" as="geometry"/>
                </mxCell>
                <mxCell id="Q099LvCUEqJmxr-4RxnZ-20" value="&lt;b&gt;true&lt;/b&gt;" style="text;html=1;strokeColor=none;fillColor=none;align=center;verticalAlign=middle;whiteSpace=wrap;rounded=0;fontSize=14;" parent="1" vertex="1">
                    <mxGeometry x="395" y="300" width="60" height="30" as="geometry"/>
                </mxCell>
                <mxCell id="Q099LvCUEqJmxr-4RxnZ-21" value="&lt;div style=&quot;text-align: left&quot;&gt;&lt;span style=&quot;font-size: 13px&quot;&gt;def =&amp;nbsp; {seconds}&lt;/span&gt;&lt;/div&gt;&lt;font style=&quot;font-size: 13px&quot;&gt;&lt;div style=&quot;text-align: left&quot;&gt;&lt;span&gt;c-use = {seconds}&lt;/span&gt;&lt;/div&gt;&lt;div style=&quot;text-align: left&quot;&gt;&lt;span&gt;p-use = {}&lt;/span&gt;&lt;/div&gt;&lt;/font&gt;" style="text;html=1;align=center;verticalAlign=middle;resizable=0;points=[];autosize=1;strokeColor=none;fillColor=none;fontSize=12;" parent="1" vertex="1">
                    <mxGeometry x="680" y="180" width="120" height="50" as="geometry"/>
                </mxCell>
                <mxCell id="Q099LvCUEqJmxr-4RxnZ-22" value="&lt;div style=&quot;text-align: left&quot;&gt;&lt;span style=&quot;font-size: 13px&quot;&gt;def =&amp;nbsp; {}&lt;/span&gt;&lt;/div&gt;&lt;font style=&quot;font-size: 13px&quot;&gt;&lt;div style=&quot;text-align: left&quot;&gt;&lt;span&gt;c-use = {seconds}&lt;/span&gt;&lt;/div&gt;&lt;div style=&quot;text-align: left&quot;&gt;&lt;span&gt;p-use = {}&lt;/span&gt;&lt;/div&gt;&lt;/font&gt;" style="text;html=1;align=center;verticalAlign=middle;resizable=0;points=[];autosize=1;strokeColor=none;fillColor=none;fontSize=12;" parent="1" vertex="1">
                    <mxGeometry x="262" y="405" width="120" height="50" as="geometry"/>
                </mxCell>
                <mxCell id="Q099LvCUEqJmxr-4RxnZ-24" value="&lt;div style=&quot;color: rgb(56 , 58 , 66) ; font-family: &amp;#34;jetbrainsmono nerd font mono&amp;#34; , monospace , &amp;#34;consolas&amp;#34; , &amp;#34;courier new&amp;#34; , monospace ; line-height: 18px&quot;&gt;&lt;span style=&quot;font-family: &amp;#34;droid sans mono&amp;#34; , &amp;#34;monospace&amp;#34; , monospace ; text-align: left ; color: rgb(0 , 92 , 197)&quot;&gt;this&lt;/span&gt;&lt;span style=&quot;color: rgb(0 , 0 , 0) ; font-family: &amp;#34;droid sans mono&amp;#34; , &amp;#34;monospace&amp;#34; , monospace ; text-align: left&quot;&gt;.&lt;/span&gt;&lt;span style=&quot;font-family: &amp;#34;droid sans mono&amp;#34; , &amp;#34;monospace&amp;#34; , monospace ; text-align: left ; color: rgb(111 , 66 , 193)&quot;&gt;isRunning&lt;/span&gt;&lt;span style=&quot;color: rgb(0 , 0 , 0) ; font-family: &amp;#34;droid sans mono&amp;#34; , &amp;#34;monospace&amp;#34; , monospace ; text-align: left&quot;&gt;()&lt;/span&gt;&lt;br&gt;&lt;/div&gt;" style="rhombus;whiteSpace=wrap;html=1;" parent="1" vertex="1">
                    <mxGeometry x="95" y="260" width="260" height="80" as="geometry"/>
                </mxCell>
                <mxCell id="Q099LvCUEqJmxr-4RxnZ-27" value="" style="ellipse;html=1;shape=endState;fillColor=#000000;strokeColor=#000000;" parent="1" vertex="1">
                    <mxGeometry x="210" y="560" width="30" height="30" as="geometry"/>
                </mxCell>
                <mxCell id="Q099LvCUEqJmxr-4RxnZ-29" style="edgeStyle=none;html=1;exitX=0.5;exitY=1;exitDx=0;exitDy=0;fontSize=12;entryX=0.5;entryY=0;entryDx=0;entryDy=0;" parent="1" target="Q099LvCUEqJmxr-4RxnZ-39" edge="1">
                    <mxGeometry relative="1" as="geometry">
                        <mxPoint x="1034.17" y="385" as="targetPoint"/>
                        <mxPoint x="1034.17" y="325" as="sourcePoint"/>
                    </mxGeometry>
                </mxCell>
                <mxCell id="Q099LvCUEqJmxr-4RxnZ-33" style="edgeStyle=none;html=1;exitX=0.5;exitY=1;exitDx=0;exitDy=0;entryX=0.997;entryY=0.295;entryDx=0;entryDy=0;fontSize=12;entryPerimeter=0;" parent="1" source="ZpBZV-jFPkoFAuJdocFQ-2" target="Q099LvCUEqJmxr-4RxnZ-7" edge="1">
                    <mxGeometry relative="1" as="geometry">
                        <Array as="points">
                            <mxPoint x="640" y="478"/>
                            <mxPoint x="420" y="478"/>
                        </Array>
                        <mxPoint x="525.0000000000005" y="420" as="sourcePoint"/>
                    </mxGeometry>
                </mxCell>
                <mxCell id="Q099LvCUEqJmxr-4RxnZ-36" value="&lt;span style=&quot;font-size: 14px&quot;&gt;5&lt;/span&gt;" style="text;html=1;strokeColor=default;fillColor=none;align=center;verticalAlign=middle;whiteSpace=wrap;rounded=0;" parent="1" vertex="1">
                    <mxGeometry x="1190" y="405" width="30" height="30" as="geometry"/>
                </mxCell>
                <mxCell id="Q099LvCUEqJmxr-4RxnZ-38" value="&lt;div style=&quot;text-align: left&quot;&gt;&lt;span style=&quot;font-size: 13px&quot;&gt;def =&amp;nbsp; {e}&lt;/span&gt;&lt;/div&gt;&lt;font style=&quot;font-size: 13px&quot;&gt;&lt;div style=&quot;text-align: left&quot;&gt;&lt;span&gt;c-use = {}&lt;/span&gt;&lt;/div&gt;&lt;div style=&quot;text-align: left&quot;&gt;&lt;span&gt;p-use = {}&lt;/span&gt;&lt;/div&gt;&lt;/font&gt;" style="text;html=1;align=center;verticalAlign=middle;resizable=0;points=[];autosize=1;strokeColor=none;fillColor=none;fontSize=12;" parent="1" vertex="1">
                    <mxGeometry x="1230" y="270" width="70" height="50" as="geometry"/>
                </mxCell>
                <mxCell id="vGKFlbqT59KIqbNa6LfE-1" style="edgeStyle=none;html=1;exitX=0.5;exitY=1;exitDx=0;exitDy=0;fontSize=12;entryX=1;entryY=0.75;entryDx=0;entryDy=0;" parent="1" source="Q099LvCUEqJmxr-4RxnZ-39" target="Q099LvCUEqJmxr-4RxnZ-7" edge="1">
                    <mxGeometry relative="1" as="geometry">
                        <mxPoint x="350" y="548" as="targetPoint"/>
                        <Array as="points">
                            <mxPoint x="1035" y="505"/>
                            <mxPoint x="700" y="505"/>
                            <mxPoint x="420" y="505"/>
                        </Array>
                    </mxGeometry>
                </mxCell>
                <mxCell id="Q099LvCUEqJmxr-4RxnZ-39" value="&lt;div style=&quot;color: rgb(56 , 58 , 66) ; font-family: &amp;#34;jetbrainsmono nerd font mono&amp;#34; , monospace , &amp;#34;consolas&amp;#34; , &amp;#34;courier new&amp;#34; , monospace ; line-height: 18px&quot;&gt;&lt;div style=&quot;font-family: &amp;#34;jetbrainsmono nerd font mono&amp;#34; , monospace , &amp;#34;consolas&amp;#34; , &amp;#34;courier new&amp;#34; , monospace ; line-height: 18px&quot;&gt;&lt;div style=&quot;color: rgb(0 , 0 , 0) ; font-family: &amp;#34;droid sans mono&amp;#34; , &amp;#34;monospace&amp;#34; , monospace&quot;&gt;&lt;span style=&quot;text-align: left&quot;&gt;e.&lt;/span&gt;&lt;span style=&quot;text-align: left ; color: rgb(111 , 66 , 193)&quot;&gt;printStackTrace&lt;/span&gt;&lt;span style=&quot;text-align: left&quot;&gt;();&lt;/span&gt;&lt;br&gt;&lt;/div&gt;&lt;/div&gt;&lt;/div&gt;" style="rounded=1;whiteSpace=wrap;html=1;align=center;" parent="1" vertex="1">
                    <mxGeometry x="910" y="390" width="250" height="60" as="geometry"/>
                </mxCell>
                <mxCell id="Q099LvCUEqJmxr-4RxnZ-41" value="&lt;div style=&quot;text-align: left&quot;&gt;&lt;span style=&quot;font-size: 13px&quot;&gt;def =&amp;nbsp; {}&lt;/span&gt;&lt;/div&gt;&lt;font style=&quot;font-size: 13px&quot;&gt;&lt;div style=&quot;text-align: left&quot;&gt;&lt;span&gt;c-use = {e}&lt;/span&gt;&lt;/div&gt;&lt;div style=&quot;text-align: left&quot;&gt;&lt;span&gt;p-use = {}&lt;/span&gt;&lt;/div&gt;&lt;/font&gt;" style="text;html=1;align=center;verticalAlign=middle;resizable=0;points=[];autosize=1;strokeColor=none;fillColor=none;fontSize=12;" parent="1" vertex="1">
                    <mxGeometry x="1235" y="395" width="80" height="50" as="geometry"/>
                </mxCell>
                <mxCell id="ZpBZV-jFPkoFAuJdocFQ-5" style="edgeStyle=none;html=1;exitX=1;exitY=0.5;exitDx=0;exitDy=0;" parent="1" source="ZpBZV-jFPkoFAuJdocFQ-2" edge="1">
                    <mxGeometry relative="1" as="geometry">
                        <mxPoint x="910" y="300" as="targetPoint"/>
                        <Array as="points">
                            <mxPoint x="830" y="300"/>
                        </Array>
                    </mxGeometry>
                </mxCell>
                <mxCell id="ZpBZV-jFPkoFAuJdocFQ-2" value="&lt;div style=&quot;color: rgb(56 , 58 , 66) ; font-family: &amp;#34;jetbrainsmono nerd font mono&amp;#34; , monospace , &amp;#34;consolas&amp;#34; , &amp;#34;courier new&amp;#34; , monospace ; line-height: 18px&quot;&gt;&lt;span style=&quot;font-family: &amp;#34;droid sans mono&amp;#34; , &amp;#34;monospace&amp;#34; , monospace ; color: rgb(215 , 58 , 73) ; text-align: left&quot;&gt;try&lt;/span&gt;&lt;span style=&quot;color: rgb(0 , 0 , 0) ; font-family: &amp;#34;droid sans mono&amp;#34; , &amp;#34;monospace&amp;#34; , monospace&quot;&gt;{ seconds +=&lt;br&gt;&lt;/span&gt;&lt;span style=&quot;font-family: &amp;#34;droid sans mono&amp;#34; , &amp;#34;monospace&amp;#34; , monospace ; color: rgb(0 , 92 , 197)&quot;&gt;this&lt;/span&gt;&lt;span style=&quot;color: rgb(0 , 0 , 0) ; font-family: &amp;#34;droid sans mono&amp;#34; , &amp;#34;monospace&amp;#34; , monospace&quot;&gt;.&lt;/span&gt;&lt;span style=&quot;font-family: &amp;#34;droid sans mono&amp;#34; , &amp;#34;monospace&amp;#34; , monospace ; color: rgb(111 , 66 , 193)&quot;&gt;getElapsedSeconds&lt;/span&gt;&lt;span style=&quot;color: rgb(0 , 0 , 0) ; font-family: &amp;#34;droid sans mono&amp;#34; , &amp;#34;monospace&amp;#34; , monospace&quot;&gt;()&lt;br&gt;;}&lt;/span&gt;&lt;br&gt;&lt;/div&gt;" style="rhombus;whiteSpace=wrap;html=1;" parent="1" vertex="1">
                    <mxGeometry x="510" y="250" width="260" height="100" as="geometry"/>
                </mxCell>
                <mxCell id="ZpBZV-jFPkoFAuJdocFQ-8" value="&lt;div style=&quot;color: rgb(56 , 58 , 66) ; font-family: &amp;#34;jetbrainsmono nerd font mono&amp;#34; , monospace , &amp;#34;consolas&amp;#34; , &amp;#34;courier new&amp;#34; , monospace ; line-height: 18px&quot;&gt;&lt;div style=&quot;font-family: &amp;#34;jetbrainsmono nerd font mono&amp;#34; , monospace , &amp;#34;consolas&amp;#34; , &amp;#34;courier new&amp;#34; , monospace ; line-height: 18px&quot;&gt;&lt;div style=&quot;color: rgb(0 , 0 , 0) ; font-family: &amp;#34;droid sans mono&amp;#34; , &amp;#34;monospace&amp;#34; , monospace&quot;&gt;&lt;span style=&quot;color: rgb(215 , 58 , 73)&quot;&gt;catch&amp;nbsp;&lt;/span&gt;(ProjectException&amp;nbsp;&lt;span style=&quot;color: rgb(227 , 98 , 9)&quot;&gt;e&lt;/span&gt;)&lt;br&gt;&lt;/div&gt;&lt;/div&gt;&lt;/div&gt;" style="rounded=1;whiteSpace=wrap;html=1;align=center;" parent="1" vertex="1">
                    <mxGeometry x="910" y="270" width="250" height="60" as="geometry"/>
                </mxCell>
                <mxCell id="ZpBZV-jFPkoFAuJdocFQ-10" value="&lt;b&gt;exception&lt;/b&gt;" style="text;html=1;strokeColor=none;fillColor=none;align=center;verticalAlign=middle;whiteSpace=wrap;rounded=0;fontSize=14;" parent="1" vertex="1">
                    <mxGeometry x="810" y="270" width="60" height="25" as="geometry"/>
                </mxCell>
                <mxCell id="ZpBZV-jFPkoFAuJdocFQ-14" value="&lt;b&gt;no exception&lt;/b&gt;" style="text;html=1;strokeColor=none;fillColor=none;align=center;verticalAlign=middle;whiteSpace=wrap;rounded=0;fontSize=14;" parent="1" vertex="1">
                    <mxGeometry x="650" y="370" width="70" height="50" as="geometry"/>
                </mxCell>
                <mxCell id="ZpBZV-jFPkoFAuJdocFQ-18" value="&lt;span style=&quot;font-size: 14px&quot;&gt;4&lt;/span&gt;" style="text;html=1;strokeColor=default;fillColor=none;align=center;verticalAlign=middle;whiteSpace=wrap;rounded=0;" parent="1" vertex="1">
                    <mxGeometry x="1190" y="280" width="30" height="30" as="geometry"/>
                </mxCell>
            </root>
        </mxGraphModel>
    </diagram>
    <diagram id="h1s2fcJIz6pOHZ4W5fEm" name="variables">
        <mxGraphModel dx="789" dy="346" grid="0" gridSize="10" guides="1" tooltips="1" connect="1" arrows="1" fold="1" page="1" pageScale="1" pageWidth="850" pageHeight="1100" math="0" shadow="0">
            <root>
                <mxCell id="7IdhNKkZhCPgYUxq1qbz-0"/>
                <mxCell id="7IdhNKkZhCPgYUxq1qbz-1" parent="7IdhNKkZhCPgYUxq1qbz-0"/>
                <mxCell id="KHX99SjixaXAW6SUAkbP-0" value="seconds" style="shape=table;startSize=20;container=1;collapsible=0;childLayout=tableLayout;fontStyle=1;align=center;pointerEvents=1;labelBackgroundColor=none;fontSize=12;fillColor=#647687;fontColor=#ffffff;strokeColor=#314354;" parent="7IdhNKkZhCPgYUxq1qbz-1" vertex="1">
                    <mxGeometry x="45" y="60" width="240" height="140" as="geometry"/>
                </mxCell>
                <mxCell id="KHX99SjixaXAW6SUAkbP-1" value="" style="shape=partialRectangle;html=1;whiteSpace=wrap;collapsible=0;dropTarget=0;pointerEvents=0;fillColor=none;top=0;left=0;bottom=0;right=0;points=[[0,0.5],[1,0.5]];portConstraint=eastwest;labelBackgroundColor=none;fontSize=12;" parent="KHX99SjixaXAW6SUAkbP-0" vertex="1">
                    <mxGeometry y="20" width="240" height="20" as="geometry"/>
                </mxCell>
                <mxCell id="KHX99SjixaXAW6SUAkbP-2" value="Pair id" style="shape=partialRectangle;html=1;whiteSpace=wrap;connectable=0;fillColor=#ffe6cc;top=0;left=0;bottom=0;right=0;overflow=hidden;pointerEvents=1;labelBackgroundColor=none;fontSize=12;strokeColor=#000000;fontStyle=1;strokeWidth=1;" parent="KHX99SjixaXAW6SUAkbP-1" vertex="1">
                    <mxGeometry width="48" height="20" as="geometry">
                        <mxRectangle width="48" height="20" as="alternateBounds"/>
                    </mxGeometry>
                </mxCell>
                <mxCell id="KHX99SjixaXAW6SUAkbP-3" value="def" style="shape=partialRectangle;html=1;whiteSpace=wrap;connectable=0;fillColor=#ffe6cc;top=0;left=0;bottom=0;right=0;overflow=hidden;pointerEvents=1;labelBackgroundColor=none;fontSize=12;strokeColor=#000000;fontStyle=1;strokeWidth=1;" parent="KHX99SjixaXAW6SUAkbP-1" vertex="1">
                    <mxGeometry x="48" width="33" height="20" as="geometry">
                        <mxRectangle width="33" height="20" as="alternateBounds"/>
                    </mxGeometry>
                </mxCell>
                <mxCell id="KHX99SjixaXAW6SUAkbP-4" value="use" style="shape=partialRectangle;html=1;whiteSpace=wrap;connectable=0;fillColor=#ffe6cc;top=0;left=0;bottom=0;right=0;overflow=hidden;pointerEvents=1;labelBackgroundColor=none;fontSize=12;strokeColor=#000000;fontStyle=1;strokeWidth=1;" parent="KHX99SjixaXAW6SUAkbP-1" vertex="1">
                    <mxGeometry x="81" width="39" height="20" as="geometry">
                        <mxRectangle width="39" height="20" as="alternateBounds"/>
                    </mxGeometry>
                </mxCell>
                <mxCell id="KHX99SjixaXAW6SUAkbP-5" value="path" style="shape=partialRectangle;html=1;whiteSpace=wrap;connectable=0;fillColor=#ffe6cc;top=0;left=0;bottom=0;right=0;overflow=hidden;pointerEvents=1;labelBackgroundColor=none;fontSize=12;strokeColor=#000000;fontStyle=1;strokeWidth=1;" parent="KHX99SjixaXAW6SUAkbP-1" vertex="1">
                    <mxGeometry x="120" width="120" height="20" as="geometry">
                        <mxRectangle width="120" height="20" as="alternateBounds"/>
                    </mxGeometry>
                </mxCell>
                <mxCell id="KHX99SjixaXAW6SUAkbP-6" value="" style="shape=partialRectangle;html=1;whiteSpace=wrap;collapsible=0;dropTarget=0;pointerEvents=0;fillColor=none;top=0;left=0;bottom=0;right=0;points=[[0,0.5],[1,0.5]];portConstraint=eastwest;labelBackgroundColor=none;fontSize=12;" parent="KHX99SjixaXAW6SUAkbP-0" vertex="1">
                    <mxGeometry y="40" width="240" height="20" as="geometry"/>
                </mxCell>
                <mxCell id="KHX99SjixaXAW6SUAkbP-7" value="1" style="shape=partialRectangle;html=1;whiteSpace=wrap;connectable=0;fillColor=none;top=0;left=0;bottom=0;right=0;overflow=hidden;pointerEvents=1;labelBackgroundColor=none;fontSize=12;" parent="KHX99SjixaXAW6SUAkbP-6" vertex="1">
                    <mxGeometry width="48" height="20" as="geometry">
                        <mxRectangle width="48" height="20" as="alternateBounds"/>
                    </mxGeometry>
                </mxCell>
                <mxCell id="KHX99SjixaXAW6SUAkbP-8" value="1" style="shape=partialRectangle;html=1;whiteSpace=wrap;connectable=0;fillColor=none;top=0;left=0;bottom=0;right=0;overflow=hidden;pointerEvents=1;labelBackgroundColor=none;fontSize=12;" parent="KHX99SjixaXAW6SUAkbP-6" vertex="1">
                    <mxGeometry x="48" width="33" height="20" as="geometry">
                        <mxRectangle width="33" height="20" as="alternateBounds"/>
                    </mxGeometry>
                </mxCell>
                <mxCell id="KHX99SjixaXAW6SUAkbP-9" value="3" style="shape=partialRectangle;html=1;whiteSpace=wrap;connectable=0;fillColor=none;top=0;left=0;bottom=0;right=0;overflow=hidden;pointerEvents=1;labelBackgroundColor=none;fontSize=12;" parent="KHX99SjixaXAW6SUAkbP-6" vertex="1">
                    <mxGeometry x="81" width="39" height="20" as="geometry">
                        <mxRectangle width="39" height="20" as="alternateBounds"/>
                    </mxGeometry>
                </mxCell>
                <mxCell id="KHX99SjixaXAW6SUAkbP-10" value="&amp;lt;1,2,3&amp;gt;" style="shape=partialRectangle;html=1;whiteSpace=wrap;connectable=0;fillColor=none;top=0;left=0;bottom=0;right=0;overflow=hidden;pointerEvents=1;labelBackgroundColor=none;fontSize=12;" parent="KHX99SjixaXAW6SUAkbP-6" vertex="1">
                    <mxGeometry x="120" width="120" height="20" as="geometry">
                        <mxRectangle width="120" height="20" as="alternateBounds"/>
                    </mxGeometry>
                </mxCell>
                <mxCell id="KHX99SjixaXAW6SUAkbP-11" style="shape=partialRectangle;html=1;whiteSpace=wrap;collapsible=0;dropTarget=0;pointerEvents=0;fillColor=none;top=0;left=0;bottom=0;right=0;points=[[0,0.5],[1,0.5]];portConstraint=eastwest;labelBackgroundColor=none;fontSize=12;" parent="KHX99SjixaXAW6SUAkbP-0" vertex="1">
                    <mxGeometry y="60" width="240" height="20" as="geometry"/>
                </mxCell>
                <mxCell id="KHX99SjixaXAW6SUAkbP-12" value="2" style="shape=partialRectangle;html=1;whiteSpace=wrap;connectable=0;fillColor=none;top=0;left=0;bottom=0;right=0;overflow=hidden;pointerEvents=1;labelBackgroundColor=none;fontSize=12;" parent="KHX99SjixaXAW6SUAkbP-11" vertex="1">
                    <mxGeometry width="48" height="20" as="geometry">
                        <mxRectangle width="48" height="20" as="alternateBounds"/>
                    </mxGeometry>
                </mxCell>
                <mxCell id="KHX99SjixaXAW6SUAkbP-13" value="1" style="shape=partialRectangle;html=1;whiteSpace=wrap;connectable=0;fillColor=none;top=0;left=0;bottom=0;right=0;overflow=hidden;pointerEvents=1;labelBackgroundColor=none;fontSize=12;" parent="KHX99SjixaXAW6SUAkbP-11" vertex="1">
                    <mxGeometry x="48" width="33" height="20" as="geometry">
                        <mxRectangle width="33" height="20" as="alternateBounds"/>
                    </mxGeometry>
                </mxCell>
                <mxCell id="KHX99SjixaXAW6SUAkbP-14" value="6" style="shape=partialRectangle;html=1;whiteSpace=wrap;connectable=0;fillColor=none;top=0;left=0;bottom=0;right=0;overflow=hidden;pointerEvents=1;labelBackgroundColor=none;fontSize=12;" parent="KHX99SjixaXAW6SUAkbP-11" vertex="1">
                    <mxGeometry x="81" width="39" height="20" as="geometry">
                        <mxRectangle width="39" height="20" as="alternateBounds"/>
                    </mxGeometry>
                </mxCell>
                <mxCell id="KHX99SjixaXAW6SUAkbP-15" value="&amp;lt;1,2,6&amp;gt;" style="shape=partialRectangle;html=1;whiteSpace=wrap;connectable=0;fillColor=none;top=0;left=0;bottom=0;right=0;overflow=hidden;pointerEvents=1;labelBackgroundColor=none;fontSize=12;" parent="KHX99SjixaXAW6SUAkbP-11" vertex="1">
                    <mxGeometry x="120" width="120" height="20" as="geometry">
                        <mxRectangle width="120" height="20" as="alternateBounds"/>
                    </mxGeometry>
                </mxCell>
                <mxCell id="uCPLaUbIop0RC9Gk4FpZ-4" style="shape=partialRectangle;html=1;whiteSpace=wrap;collapsible=0;dropTarget=0;pointerEvents=0;fillColor=none;top=0;left=0;bottom=0;right=0;points=[[0,0.5],[1,0.5]];portConstraint=eastwest;labelBackgroundColor=none;fontSize=12;" parent="KHX99SjixaXAW6SUAkbP-0" vertex="1">
                    <mxGeometry y="80" width="240" height="20" as="geometry"/>
                </mxCell>
                <mxCell id="uCPLaUbIop0RC9Gk4FpZ-5" value="3" style="shape=partialRectangle;html=1;whiteSpace=wrap;connectable=0;fillColor=none;top=0;left=0;bottom=0;right=0;overflow=hidden;pointerEvents=1;labelBackgroundColor=none;fontSize=12;" parent="uCPLaUbIop0RC9Gk4FpZ-4" vertex="1">
                    <mxGeometry width="48" height="20" as="geometry">
                        <mxRectangle width="48" height="20" as="alternateBounds"/>
                    </mxGeometry>
                </mxCell>
                <mxCell id="uCPLaUbIop0RC9Gk4FpZ-6" value="3" style="shape=partialRectangle;html=1;whiteSpace=wrap;connectable=0;fillColor=none;top=0;left=0;bottom=0;right=0;overflow=hidden;pointerEvents=1;labelBackgroundColor=none;fontSize=12;" parent="uCPLaUbIop0RC9Gk4FpZ-4" vertex="1">
                    <mxGeometry x="48" width="33" height="20" as="geometry">
                        <mxRectangle width="33" height="20" as="alternateBounds"/>
                    </mxGeometry>
                </mxCell>
                <mxCell id="uCPLaUbIop0RC9Gk4FpZ-7" value="3" style="shape=partialRectangle;html=1;whiteSpace=wrap;connectable=0;fillColor=none;top=0;left=0;bottom=0;right=0;overflow=hidden;pointerEvents=1;labelBackgroundColor=none;fontSize=12;" parent="uCPLaUbIop0RC9Gk4FpZ-4" vertex="1">
                    <mxGeometry x="81" width="39" height="20" as="geometry">
                        <mxRectangle width="39" height="20" as="alternateBounds"/>
                    </mxGeometry>
                </mxCell>
                <mxCell id="uCPLaUbIop0RC9Gk4FpZ-8" value="&lt;span&gt;&amp;lt;3,3&amp;gt;&lt;/span&gt;" style="shape=partialRectangle;html=1;whiteSpace=wrap;connectable=0;fillColor=none;top=0;left=0;bottom=0;right=0;overflow=hidden;pointerEvents=1;labelBackgroundColor=none;fontSize=12;" parent="uCPLaUbIop0RC9Gk4FpZ-4" vertex="1">
                    <mxGeometry x="120" width="120" height="20" as="geometry">
                        <mxRectangle width="120" height="20" as="alternateBounds"/>
                    </mxGeometry>
                </mxCell>
                <mxCell id="2z6o57EcQ5_l1nbYAZS9-0" style="shape=partialRectangle;html=1;whiteSpace=wrap;collapsible=0;dropTarget=0;pointerEvents=0;fillColor=none;top=0;left=0;bottom=0;right=0;points=[[0,0.5],[1,0.5]];portConstraint=eastwest;labelBackgroundColor=none;fontSize=12;" parent="KHX99SjixaXAW6SUAkbP-0" vertex="1">
                    <mxGeometry y="100" width="240" height="20" as="geometry"/>
                </mxCell>
                <mxCell id="2z6o57EcQ5_l1nbYAZS9-1" value="4" style="shape=partialRectangle;html=1;whiteSpace=wrap;connectable=0;fillColor=none;top=0;left=0;bottom=0;right=0;overflow=hidden;pointerEvents=1;labelBackgroundColor=none;fontSize=12;" parent="2z6o57EcQ5_l1nbYAZS9-0" vertex="1">
                    <mxGeometry width="48" height="20" as="geometry">
                        <mxRectangle width="48" height="20" as="alternateBounds"/>
                    </mxGeometry>
                </mxCell>
                <mxCell id="2z6o57EcQ5_l1nbYAZS9-2" value="3" style="shape=partialRectangle;html=1;whiteSpace=wrap;connectable=0;fillColor=none;top=0;left=0;bottom=0;right=0;overflow=hidden;pointerEvents=1;labelBackgroundColor=none;fontSize=12;" parent="2z6o57EcQ5_l1nbYAZS9-0" vertex="1">
                    <mxGeometry x="48" width="33" height="20" as="geometry">
                        <mxRectangle width="33" height="20" as="alternateBounds"/>
                    </mxGeometry>
                </mxCell>
                <mxCell id="2z6o57EcQ5_l1nbYAZS9-3" value="6" style="shape=partialRectangle;html=1;whiteSpace=wrap;connectable=0;fillColor=none;top=0;left=0;bottom=0;right=0;overflow=hidden;pointerEvents=1;labelBackgroundColor=none;fontSize=12;" parent="2z6o57EcQ5_l1nbYAZS9-0" vertex="1">
                    <mxGeometry x="81" width="39" height="20" as="geometry">
                        <mxRectangle width="39" height="20" as="alternateBounds"/>
                    </mxGeometry>
                </mxCell>
                <mxCell id="2z6o57EcQ5_l1nbYAZS9-4" value="&amp;lt;3,6&amp;gt;" style="shape=partialRectangle;html=1;whiteSpace=wrap;connectable=0;fillColor=none;top=0;left=0;bottom=0;right=0;overflow=hidden;pointerEvents=1;labelBackgroundColor=none;fontSize=12;" parent="2z6o57EcQ5_l1nbYAZS9-0" vertex="1">
                    <mxGeometry x="120" width="120" height="20" as="geometry">
                        <mxRectangle width="120" height="20" as="alternateBounds"/>
                    </mxGeometry>
                </mxCell>
                <mxCell id="Hld7F914ZNRitEMgMv3g-0" style="shape=partialRectangle;html=1;whiteSpace=wrap;collapsible=0;dropTarget=0;pointerEvents=0;fillColor=none;top=0;left=0;bottom=0;right=0;points=[[0,0.5],[1,0.5]];portConstraint=eastwest;labelBackgroundColor=none;fontSize=12;" parent="KHX99SjixaXAW6SUAkbP-0" vertex="1">
                    <mxGeometry y="120" width="240" height="20" as="geometry"/>
                </mxCell>
                <mxCell id="Hld7F914ZNRitEMgMv3g-1" value="5" style="shape=partialRectangle;html=1;whiteSpace=wrap;connectable=0;fillColor=none;top=0;left=0;bottom=0;right=0;overflow=hidden;pointerEvents=1;labelBackgroundColor=none;fontSize=12;" parent="Hld7F914ZNRitEMgMv3g-0" vertex="1">
                    <mxGeometry width="48" height="20" as="geometry">
                        <mxRectangle width="48" height="20" as="alternateBounds"/>
                    </mxGeometry>
                </mxCell>
                <mxCell id="Hld7F914ZNRitEMgMv3g-2" value="3" style="shape=partialRectangle;html=1;whiteSpace=wrap;connectable=0;fillColor=none;top=0;left=0;bottom=0;right=0;overflow=hidden;pointerEvents=1;labelBackgroundColor=none;fontSize=12;" parent="Hld7F914ZNRitEMgMv3g-0" vertex="1">
                    <mxGeometry x="48" width="33" height="20" as="geometry">
                        <mxRectangle width="33" height="20" as="alternateBounds"/>
                    </mxGeometry>
                </mxCell>
                <mxCell id="Hld7F914ZNRitEMgMv3g-3" value="6" style="shape=partialRectangle;html=1;whiteSpace=wrap;connectable=0;fillColor=none;top=0;left=0;bottom=0;right=0;overflow=hidden;pointerEvents=1;labelBackgroundColor=none;fontSize=12;" parent="Hld7F914ZNRitEMgMv3g-0" vertex="1">
                    <mxGeometry x="81" width="39" height="20" as="geometry">
                        <mxRectangle width="39" height="20" as="alternateBounds"/>
                    </mxGeometry>
                </mxCell>
                <mxCell id="Hld7F914ZNRitEMgMv3g-4" value="&amp;lt;3,4,5,6&amp;gt;" style="shape=partialRectangle;html=1;whiteSpace=wrap;connectable=0;fillColor=none;top=0;left=0;bottom=0;right=0;overflow=hidden;pointerEvents=1;labelBackgroundColor=none;fontSize=12;" parent="Hld7F914ZNRitEMgMv3g-0" vertex="1">
                    <mxGeometry x="120" width="120" height="20" as="geometry">
                        <mxRectangle width="120" height="20" as="alternateBounds"/>
                    </mxGeometry>
                </mxCell>
                <mxCell id="Qxcx4bDHRyWcL-Le2atJ-0" value="secondsToday" style="shape=table;startSize=20;container=1;collapsible=0;childLayout=tableLayout;fontStyle=1;align=center;pointerEvents=1;labelBackgroundColor=none;fontSize=12;fillColor=#647687;fontColor=#ffffff;strokeColor=#314354;" parent="7IdhNKkZhCPgYUxq1qbz-1" vertex="1">
                    <mxGeometry x="300" y="60" width="240" height="60" as="geometry"/>
                </mxCell>
                <mxCell id="Qxcx4bDHRyWcL-Le2atJ-1" value="" style="shape=partialRectangle;html=1;whiteSpace=wrap;collapsible=0;dropTarget=0;pointerEvents=0;fillColor=none;top=0;left=0;bottom=0;right=0;points=[[0,0.5],[1,0.5]];portConstraint=eastwest;labelBackgroundColor=none;fontSize=12;" parent="Qxcx4bDHRyWcL-Le2atJ-0" vertex="1">
                    <mxGeometry y="20" width="240" height="20" as="geometry"/>
                </mxCell>
                <mxCell id="Qxcx4bDHRyWcL-Le2atJ-2" value="Pair id" style="shape=partialRectangle;html=1;whiteSpace=wrap;connectable=0;fillColor=#ffe6cc;top=0;left=0;bottom=0;right=0;overflow=hidden;pointerEvents=1;labelBackgroundColor=none;fontSize=12;strokeColor=#000000;fontStyle=1;strokeWidth=1;" parent="Qxcx4bDHRyWcL-Le2atJ-1" vertex="1">
                    <mxGeometry width="48" height="20" as="geometry">
                        <mxRectangle width="48" height="20" as="alternateBounds"/>
                    </mxGeometry>
                </mxCell>
                <mxCell id="Qxcx4bDHRyWcL-Le2atJ-3" value="def" style="shape=partialRectangle;html=1;whiteSpace=wrap;connectable=0;fillColor=#ffe6cc;top=0;left=0;bottom=0;right=0;overflow=hidden;pointerEvents=1;labelBackgroundColor=none;fontSize=12;strokeColor=#000000;fontStyle=1;strokeWidth=1;" parent="Qxcx4bDHRyWcL-Le2atJ-1" vertex="1">
                    <mxGeometry x="48" width="33" height="20" as="geometry">
                        <mxRectangle width="33" height="20" as="alternateBounds"/>
                    </mxGeometry>
                </mxCell>
                <mxCell id="Qxcx4bDHRyWcL-Le2atJ-4" value="use" style="shape=partialRectangle;html=1;whiteSpace=wrap;connectable=0;fillColor=#ffe6cc;top=0;left=0;bottom=0;right=0;overflow=hidden;pointerEvents=1;labelBackgroundColor=none;fontSize=12;strokeColor=#000000;fontStyle=1;strokeWidth=1;" parent="Qxcx4bDHRyWcL-Le2atJ-1" vertex="1">
                    <mxGeometry x="81" width="39" height="20" as="geometry">
                        <mxRectangle width="39" height="20" as="alternateBounds"/>
                    </mxGeometry>
                </mxCell>
                <mxCell id="Qxcx4bDHRyWcL-Le2atJ-5" value="path" style="shape=partialRectangle;html=1;whiteSpace=wrap;connectable=0;fillColor=#ffe6cc;top=0;left=0;bottom=0;right=0;overflow=hidden;pointerEvents=1;labelBackgroundColor=none;fontSize=12;strokeColor=#000000;fontStyle=1;strokeWidth=1;" parent="Qxcx4bDHRyWcL-Le2atJ-1" vertex="1">
                    <mxGeometry x="120" width="120" height="20" as="geometry">
                        <mxRectangle width="120" height="20" as="alternateBounds"/>
                    </mxGeometry>
                </mxCell>
                <mxCell id="Qxcx4bDHRyWcL-Le2atJ-6" value="" style="shape=partialRectangle;html=1;whiteSpace=wrap;collapsible=0;dropTarget=0;pointerEvents=0;fillColor=none;top=0;left=0;bottom=0;right=0;points=[[0,0.5],[1,0.5]];portConstraint=eastwest;labelBackgroundColor=none;fontSize=12;" parent="Qxcx4bDHRyWcL-Le2atJ-0" vertex="1">
                    <mxGeometry y="40" width="240" height="20" as="geometry"/>
                </mxCell>
                <mxCell id="Qxcx4bDHRyWcL-Le2atJ-7" value="1" style="shape=partialRectangle;html=1;whiteSpace=wrap;connectable=0;fillColor=none;top=0;left=0;bottom=0;right=0;overflow=hidden;pointerEvents=1;labelBackgroundColor=none;fontSize=12;" parent="Qxcx4bDHRyWcL-Le2atJ-6" vertex="1">
                    <mxGeometry width="48" height="20" as="geometry">
                        <mxRectangle width="48" height="20" as="alternateBounds"/>
                    </mxGeometry>
                </mxCell>
                <mxCell id="Qxcx4bDHRyWcL-Le2atJ-8" value="0" style="shape=partialRectangle;html=1;whiteSpace=wrap;connectable=0;fillColor=none;top=0;left=0;bottom=0;right=0;overflow=hidden;pointerEvents=1;labelBackgroundColor=none;fontSize=12;" parent="Qxcx4bDHRyWcL-Le2atJ-6" vertex="1">
                    <mxGeometry x="48" width="33" height="20" as="geometry">
                        <mxRectangle width="33" height="20" as="alternateBounds"/>
                    </mxGeometry>
                </mxCell>
                <mxCell id="Qxcx4bDHRyWcL-Le2atJ-9" value="1" style="shape=partialRectangle;html=1;whiteSpace=wrap;connectable=0;fillColor=none;top=0;left=0;bottom=0;right=0;overflow=hidden;pointerEvents=1;labelBackgroundColor=none;fontSize=12;" parent="Qxcx4bDHRyWcL-Le2atJ-6" vertex="1">
                    <mxGeometry x="81" width="39" height="20" as="geometry">
                        <mxRectangle width="39" height="20" as="alternateBounds"/>
                    </mxGeometry>
                </mxCell>
                <mxCell id="Qxcx4bDHRyWcL-Le2atJ-10" value="&amp;lt;0,1&amp;gt;" style="shape=partialRectangle;html=1;whiteSpace=wrap;connectable=0;fillColor=none;top=0;left=0;bottom=0;right=0;overflow=hidden;pointerEvents=1;labelBackgroundColor=none;fontSize=12;" parent="Qxcx4bDHRyWcL-Le2atJ-6" vertex="1">
                    <mxGeometry x="120" width="120" height="20" as="geometry">
                        <mxRectangle width="120" height="20" as="alternateBounds"/>
                    </mxGeometry>
                </mxCell>
                <mxCell id="fXe4VdWqY9JqkOwu4gVP-0" value="e" style="shape=table;startSize=20;container=1;collapsible=0;childLayout=tableLayout;fontStyle=1;align=center;pointerEvents=1;labelBackgroundColor=none;fontSize=12;fillColor=#647687;fontColor=#ffffff;strokeColor=#314354;" parent="7IdhNKkZhCPgYUxq1qbz-1" vertex="1">
                    <mxGeometry x="560" y="60" width="240" height="60" as="geometry"/>
                </mxCell>
                <mxCell id="fXe4VdWqY9JqkOwu4gVP-1" value="" style="shape=partialRectangle;html=1;whiteSpace=wrap;collapsible=0;dropTarget=0;pointerEvents=0;fillColor=none;top=0;left=0;bottom=0;right=0;points=[[0,0.5],[1,0.5]];portConstraint=eastwest;labelBackgroundColor=none;fontSize=12;" parent="fXe4VdWqY9JqkOwu4gVP-0" vertex="1">
                    <mxGeometry y="20" width="240" height="20" as="geometry"/>
                </mxCell>
                <mxCell id="fXe4VdWqY9JqkOwu4gVP-2" value="Pair id" style="shape=partialRectangle;html=1;whiteSpace=wrap;connectable=0;fillColor=#ffe6cc;top=0;left=0;bottom=0;right=0;overflow=hidden;pointerEvents=1;labelBackgroundColor=none;fontSize=12;strokeColor=#000000;fontStyle=1;strokeWidth=1;" parent="fXe4VdWqY9JqkOwu4gVP-1" vertex="1">
                    <mxGeometry width="48" height="20" as="geometry">
                        <mxRectangle width="48" height="20" as="alternateBounds"/>
                    </mxGeometry>
                </mxCell>
                <mxCell id="fXe4VdWqY9JqkOwu4gVP-3" value="def" style="shape=partialRectangle;html=1;whiteSpace=wrap;connectable=0;fillColor=#ffe6cc;top=0;left=0;bottom=0;right=0;overflow=hidden;pointerEvents=1;labelBackgroundColor=none;fontSize=12;strokeColor=#000000;fontStyle=1;strokeWidth=1;" parent="fXe4VdWqY9JqkOwu4gVP-1" vertex="1">
                    <mxGeometry x="48" width="33" height="20" as="geometry">
                        <mxRectangle width="33" height="20" as="alternateBounds"/>
                    </mxGeometry>
                </mxCell>
                <mxCell id="fXe4VdWqY9JqkOwu4gVP-4" value="use" style="shape=partialRectangle;html=1;whiteSpace=wrap;connectable=0;fillColor=#ffe6cc;top=0;left=0;bottom=0;right=0;overflow=hidden;pointerEvents=1;labelBackgroundColor=none;fontSize=12;strokeColor=#000000;fontStyle=1;strokeWidth=1;" parent="fXe4VdWqY9JqkOwu4gVP-1" vertex="1">
                    <mxGeometry x="81" width="39" height="20" as="geometry">
                        <mxRectangle width="39" height="20" as="alternateBounds"/>
                    </mxGeometry>
                </mxCell>
                <mxCell id="fXe4VdWqY9JqkOwu4gVP-5" value="path" style="shape=partialRectangle;html=1;whiteSpace=wrap;connectable=0;fillColor=#ffe6cc;top=0;left=0;bottom=0;right=0;overflow=hidden;pointerEvents=1;labelBackgroundColor=none;fontSize=12;strokeColor=#000000;fontStyle=1;strokeWidth=1;" parent="fXe4VdWqY9JqkOwu4gVP-1" vertex="1">
                    <mxGeometry x="120" width="120" height="20" as="geometry">
                        <mxRectangle width="120" height="20" as="alternateBounds"/>
                    </mxGeometry>
                </mxCell>
                <mxCell id="fXe4VdWqY9JqkOwu4gVP-6" value="" style="shape=partialRectangle;html=1;whiteSpace=wrap;collapsible=0;dropTarget=0;pointerEvents=0;fillColor=none;top=0;left=0;bottom=0;right=0;points=[[0,0.5],[1,0.5]];portConstraint=eastwest;labelBackgroundColor=none;fontSize=12;" parent="fXe4VdWqY9JqkOwu4gVP-0" vertex="1">
                    <mxGeometry y="40" width="240" height="20" as="geometry"/>
                </mxCell>
                <mxCell id="fXe4VdWqY9JqkOwu4gVP-7" value="1" style="shape=partialRectangle;html=1;whiteSpace=wrap;connectable=0;fillColor=none;top=0;left=0;bottom=0;right=0;overflow=hidden;pointerEvents=1;labelBackgroundColor=none;fontSize=12;" parent="fXe4VdWqY9JqkOwu4gVP-6" vertex="1">
                    <mxGeometry width="48" height="20" as="geometry">
                        <mxRectangle width="48" height="20" as="alternateBounds"/>
                    </mxGeometry>
                </mxCell>
                <mxCell id="fXe4VdWqY9JqkOwu4gVP-8" value="4" style="shape=partialRectangle;html=1;whiteSpace=wrap;connectable=0;fillColor=none;top=0;left=0;bottom=0;right=0;overflow=hidden;pointerEvents=1;labelBackgroundColor=none;fontSize=12;" parent="fXe4VdWqY9JqkOwu4gVP-6" vertex="1">
                    <mxGeometry x="48" width="33" height="20" as="geometry">
                        <mxRectangle width="33" height="20" as="alternateBounds"/>
                    </mxGeometry>
                </mxCell>
                <mxCell id="fXe4VdWqY9JqkOwu4gVP-9" value="5" style="shape=partialRectangle;html=1;whiteSpace=wrap;connectable=0;fillColor=none;top=0;left=0;bottom=0;right=0;overflow=hidden;pointerEvents=1;labelBackgroundColor=none;fontSize=12;" parent="fXe4VdWqY9JqkOwu4gVP-6" vertex="1">
                    <mxGeometry x="81" width="39" height="20" as="geometry">
                        <mxRectangle width="39" height="20" as="alternateBounds"/>
                    </mxGeometry>
                </mxCell>
                <mxCell id="fXe4VdWqY9JqkOwu4gVP-10" value="&amp;lt;4,5&amp;gt;" style="shape=partialRectangle;html=1;whiteSpace=wrap;connectable=0;fillColor=none;top=0;left=0;bottom=0;right=0;overflow=hidden;pointerEvents=1;labelBackgroundColor=none;fontSize=12;" parent="fXe4VdWqY9JqkOwu4gVP-6" vertex="1">
                    <mxGeometry x="120" width="120" height="20" as="geometry">
                        <mxRectangle width="120" height="20" as="alternateBounds"/>
                    </mxGeometry>
                </mxCell>
            </root>
        </mxGraphModel>
    </diagram>
    <diagram id="TUhV75HsfkXB-j2ncNag" name="All-defs">
        <mxGraphModel dx="789" dy="346" grid="0" gridSize="10" guides="1" tooltips="1" connect="1" arrows="1" fold="1" page="1" pageScale="1" pageWidth="850" pageHeight="1100" math="0" shadow="0">
            <root>
                <mxCell id="xdLsrixDeuydQexfM_2I-0"/>
                <mxCell id="xdLsrixDeuydQexfM_2I-1" parent="xdLsrixDeuydQexfM_2I-0"/>
                <mxCell id="us385vRcmkpqw7rTd-ix-0" value="seconds" style="shape=table;startSize=20;container=1;collapsible=0;childLayout=tableLayout;fontStyle=1;align=center;pointerEvents=1;labelBackgroundColor=none;fontSize=12;fillColor=#647687;fontColor=#ffffff;strokeColor=#314354;" parent="xdLsrixDeuydQexfM_2I-1" vertex="1">
                    <mxGeometry x="45" y="60" width="240" height="140" as="geometry"/>
                </mxCell>
                <mxCell id="us385vRcmkpqw7rTd-ix-1" value="" style="shape=partialRectangle;html=1;whiteSpace=wrap;collapsible=0;dropTarget=0;pointerEvents=0;fillColor=none;top=0;left=0;bottom=0;right=0;points=[[0,0.5],[1,0.5]];portConstraint=eastwest;labelBackgroundColor=none;fontSize=12;" parent="us385vRcmkpqw7rTd-ix-0" vertex="1">
                    <mxGeometry y="20" width="240" height="20" as="geometry"/>
                </mxCell>
                <mxCell id="us385vRcmkpqw7rTd-ix-2" value="Pair id" style="shape=partialRectangle;html=1;whiteSpace=wrap;connectable=0;fillColor=#ffe6cc;top=0;left=0;bottom=0;right=0;overflow=hidden;pointerEvents=1;labelBackgroundColor=none;fontSize=12;strokeColor=#000000;fontStyle=1;strokeWidth=1;" parent="us385vRcmkpqw7rTd-ix-1" vertex="1">
                    <mxGeometry width="48" height="20" as="geometry">
                        <mxRectangle width="48" height="20" as="alternateBounds"/>
                    </mxGeometry>
                </mxCell>
                <mxCell id="us385vRcmkpqw7rTd-ix-3" value="def" style="shape=partialRectangle;html=1;whiteSpace=wrap;connectable=0;fillColor=#ffe6cc;top=0;left=0;bottom=0;right=0;overflow=hidden;pointerEvents=1;labelBackgroundColor=none;fontSize=12;strokeColor=#000000;fontStyle=1;strokeWidth=1;" parent="us385vRcmkpqw7rTd-ix-1" vertex="1">
                    <mxGeometry x="48" width="33" height="20" as="geometry">
                        <mxRectangle width="33" height="20" as="alternateBounds"/>
                    </mxGeometry>
                </mxCell>
                <mxCell id="us385vRcmkpqw7rTd-ix-4" value="use" style="shape=partialRectangle;html=1;whiteSpace=wrap;connectable=0;fillColor=#ffe6cc;top=0;left=0;bottom=0;right=0;overflow=hidden;pointerEvents=1;labelBackgroundColor=none;fontSize=12;strokeColor=#000000;fontStyle=1;strokeWidth=1;" parent="us385vRcmkpqw7rTd-ix-1" vertex="1">
                    <mxGeometry x="81" width="39" height="20" as="geometry">
                        <mxRectangle width="39" height="20" as="alternateBounds"/>
                    </mxGeometry>
                </mxCell>
                <mxCell id="us385vRcmkpqw7rTd-ix-5" value="path" style="shape=partialRectangle;html=1;whiteSpace=wrap;connectable=0;fillColor=#ffe6cc;top=0;left=0;bottom=0;right=0;overflow=hidden;pointerEvents=1;labelBackgroundColor=none;fontSize=12;strokeColor=#000000;fontStyle=1;strokeWidth=1;" parent="us385vRcmkpqw7rTd-ix-1" vertex="1">
                    <mxGeometry x="120" width="120" height="20" as="geometry">
                        <mxRectangle width="120" height="20" as="alternateBounds"/>
                    </mxGeometry>
                </mxCell>
                <mxCell id="us385vRcmkpqw7rTd-ix-6" value="" style="shape=partialRectangle;html=1;whiteSpace=wrap;collapsible=0;dropTarget=0;pointerEvents=0;fillColor=none;top=0;left=0;bottom=0;right=0;points=[[0,0.5],[1,0.5]];portConstraint=eastwest;labelBackgroundColor=none;fontSize=12;" parent="us385vRcmkpqw7rTd-ix-0" vertex="1">
                    <mxGeometry y="40" width="240" height="20" as="geometry"/>
                </mxCell>
                <mxCell id="us385vRcmkpqw7rTd-ix-7" value="1" style="shape=partialRectangle;html=1;whiteSpace=wrap;connectable=0;fillColor=none;top=0;left=0;bottom=0;right=0;overflow=hidden;pointerEvents=1;labelBackgroundColor=none;fontSize=12;fontColor=#FF6666;fontStyle=1" parent="us385vRcmkpqw7rTd-ix-6" vertex="1">
                    <mxGeometry width="48" height="20" as="geometry">
                        <mxRectangle width="48" height="20" as="alternateBounds"/>
                    </mxGeometry>
                </mxCell>
                <mxCell id="us385vRcmkpqw7rTd-ix-8" value="1" style="shape=partialRectangle;html=1;whiteSpace=wrap;connectable=0;fillColor=none;top=0;left=0;bottom=0;right=0;overflow=hidden;pointerEvents=1;labelBackgroundColor=none;fontSize=12;fontColor=#FF6666;fontStyle=1" parent="us385vRcmkpqw7rTd-ix-6" vertex="1">
                    <mxGeometry x="48" width="33" height="20" as="geometry">
                        <mxRectangle width="33" height="20" as="alternateBounds"/>
                    </mxGeometry>
                </mxCell>
                <mxCell id="us385vRcmkpqw7rTd-ix-9" value="3" style="shape=partialRectangle;html=1;whiteSpace=wrap;connectable=0;fillColor=none;top=0;left=0;bottom=0;right=0;overflow=hidden;pointerEvents=1;labelBackgroundColor=none;fontSize=12;fontColor=#FF6666;fontStyle=1" parent="us385vRcmkpqw7rTd-ix-6" vertex="1">
                    <mxGeometry x="81" width="39" height="20" as="geometry">
                        <mxRectangle width="39" height="20" as="alternateBounds"/>
                    </mxGeometry>
                </mxCell>
                <mxCell id="us385vRcmkpqw7rTd-ix-10" value="&amp;lt;1,2,3&amp;gt;" style="shape=partialRectangle;html=1;whiteSpace=wrap;connectable=0;fillColor=none;top=0;left=0;bottom=0;right=0;overflow=hidden;pointerEvents=1;labelBackgroundColor=none;fontSize=12;fontColor=#FF6666;fontStyle=1" parent="us385vRcmkpqw7rTd-ix-6" vertex="1">
                    <mxGeometry x="120" width="120" height="20" as="geometry">
                        <mxRectangle width="120" height="20" as="alternateBounds"/>
                    </mxGeometry>
                </mxCell>
                <mxCell id="us385vRcmkpqw7rTd-ix-11" style="shape=partialRectangle;html=1;whiteSpace=wrap;collapsible=0;dropTarget=0;pointerEvents=0;fillColor=none;top=0;left=0;bottom=0;right=0;points=[[0,0.5],[1,0.5]];portConstraint=eastwest;labelBackgroundColor=none;fontSize=12;" parent="us385vRcmkpqw7rTd-ix-0" vertex="1">
                    <mxGeometry y="60" width="240" height="20" as="geometry"/>
                </mxCell>
                <mxCell id="us385vRcmkpqw7rTd-ix-12" value="2" style="shape=partialRectangle;html=1;whiteSpace=wrap;connectable=0;fillColor=none;top=0;left=0;bottom=0;right=0;overflow=hidden;pointerEvents=1;labelBackgroundColor=none;fontSize=12;" parent="us385vRcmkpqw7rTd-ix-11" vertex="1">
                    <mxGeometry width="48" height="20" as="geometry">
                        <mxRectangle width="48" height="20" as="alternateBounds"/>
                    </mxGeometry>
                </mxCell>
                <mxCell id="us385vRcmkpqw7rTd-ix-13" value="1" style="shape=partialRectangle;html=1;whiteSpace=wrap;connectable=0;fillColor=none;top=0;left=0;bottom=0;right=0;overflow=hidden;pointerEvents=1;labelBackgroundColor=none;fontSize=12;" parent="us385vRcmkpqw7rTd-ix-11" vertex="1">
                    <mxGeometry x="48" width="33" height="20" as="geometry">
                        <mxRectangle width="33" height="20" as="alternateBounds"/>
                    </mxGeometry>
                </mxCell>
                <mxCell id="us385vRcmkpqw7rTd-ix-14" value="6" style="shape=partialRectangle;html=1;whiteSpace=wrap;connectable=0;fillColor=none;top=0;left=0;bottom=0;right=0;overflow=hidden;pointerEvents=1;labelBackgroundColor=none;fontSize=12;" parent="us385vRcmkpqw7rTd-ix-11" vertex="1">
                    <mxGeometry x="81" width="39" height="20" as="geometry">
                        <mxRectangle width="39" height="20" as="alternateBounds"/>
                    </mxGeometry>
                </mxCell>
                <mxCell id="us385vRcmkpqw7rTd-ix-15" value="&amp;lt;1,2,6&amp;gt;" style="shape=partialRectangle;html=1;whiteSpace=wrap;connectable=0;fillColor=none;top=0;left=0;bottom=0;right=0;overflow=hidden;pointerEvents=1;labelBackgroundColor=none;fontSize=12;" parent="us385vRcmkpqw7rTd-ix-11" vertex="1">
                    <mxGeometry x="120" width="120" height="20" as="geometry">
                        <mxRectangle width="120" height="20" as="alternateBounds"/>
                    </mxGeometry>
                </mxCell>
                <mxCell id="us385vRcmkpqw7rTd-ix-16" style="shape=partialRectangle;html=1;whiteSpace=wrap;collapsible=0;dropTarget=0;pointerEvents=0;fillColor=none;top=0;left=0;bottom=0;right=0;points=[[0,0.5],[1,0.5]];portConstraint=eastwest;labelBackgroundColor=none;fontSize=12;" parent="us385vRcmkpqw7rTd-ix-0" vertex="1">
                    <mxGeometry y="80" width="240" height="20" as="geometry"/>
                </mxCell>
                <mxCell id="us385vRcmkpqw7rTd-ix-17" value="3" style="shape=partialRectangle;html=1;whiteSpace=wrap;connectable=0;fillColor=none;top=0;left=0;bottom=0;right=0;overflow=hidden;pointerEvents=1;labelBackgroundColor=none;fontSize=12;fontColor=#FF6666;fontStyle=1" parent="us385vRcmkpqw7rTd-ix-16" vertex="1">
                    <mxGeometry width="48" height="20" as="geometry">
                        <mxRectangle width="48" height="20" as="alternateBounds"/>
                    </mxGeometry>
                </mxCell>
                <mxCell id="us385vRcmkpqw7rTd-ix-18" value="3" style="shape=partialRectangle;html=1;whiteSpace=wrap;connectable=0;fillColor=none;top=0;left=0;bottom=0;right=0;overflow=hidden;pointerEvents=1;labelBackgroundColor=none;fontSize=12;fontColor=#FF6666;fontStyle=1" parent="us385vRcmkpqw7rTd-ix-16" vertex="1">
                    <mxGeometry x="48" width="33" height="20" as="geometry">
                        <mxRectangle width="33" height="20" as="alternateBounds"/>
                    </mxGeometry>
                </mxCell>
                <mxCell id="us385vRcmkpqw7rTd-ix-19" value="3" style="shape=partialRectangle;html=1;whiteSpace=wrap;connectable=0;fillColor=none;top=0;left=0;bottom=0;right=0;overflow=hidden;pointerEvents=1;labelBackgroundColor=none;fontSize=12;fontColor=#FF6666;fontStyle=1" parent="us385vRcmkpqw7rTd-ix-16" vertex="1">
                    <mxGeometry x="81" width="39" height="20" as="geometry">
                        <mxRectangle width="39" height="20" as="alternateBounds"/>
                    </mxGeometry>
                </mxCell>
                <mxCell id="us385vRcmkpqw7rTd-ix-20" value="&lt;span&gt;&amp;lt;3,3&amp;gt;&lt;/span&gt;" style="shape=partialRectangle;html=1;whiteSpace=wrap;connectable=0;fillColor=none;top=0;left=0;bottom=0;right=0;overflow=hidden;pointerEvents=1;labelBackgroundColor=none;fontSize=12;fontColor=#FF6666;fontStyle=1" parent="us385vRcmkpqw7rTd-ix-16" vertex="1">
                    <mxGeometry x="120" width="120" height="20" as="geometry">
                        <mxRectangle width="120" height="20" as="alternateBounds"/>
                    </mxGeometry>
                </mxCell>
                <mxCell id="us385vRcmkpqw7rTd-ix-21" style="shape=partialRectangle;html=1;whiteSpace=wrap;collapsible=0;dropTarget=0;pointerEvents=0;fillColor=none;top=0;left=0;bottom=0;right=0;points=[[0,0.5],[1,0.5]];portConstraint=eastwest;labelBackgroundColor=none;fontSize=12;" parent="us385vRcmkpqw7rTd-ix-0" vertex="1">
                    <mxGeometry y="100" width="240" height="20" as="geometry"/>
                </mxCell>
                <mxCell id="us385vRcmkpqw7rTd-ix-22" value="4" style="shape=partialRectangle;html=1;whiteSpace=wrap;connectable=0;fillColor=none;top=0;left=0;bottom=0;right=0;overflow=hidden;pointerEvents=1;labelBackgroundColor=none;fontSize=12;" parent="us385vRcmkpqw7rTd-ix-21" vertex="1">
                    <mxGeometry width="48" height="20" as="geometry">
                        <mxRectangle width="48" height="20" as="alternateBounds"/>
                    </mxGeometry>
                </mxCell>
                <mxCell id="us385vRcmkpqw7rTd-ix-23" value="3" style="shape=partialRectangle;html=1;whiteSpace=wrap;connectable=0;fillColor=none;top=0;left=0;bottom=0;right=0;overflow=hidden;pointerEvents=1;labelBackgroundColor=none;fontSize=12;" parent="us385vRcmkpqw7rTd-ix-21" vertex="1">
                    <mxGeometry x="48" width="33" height="20" as="geometry">
                        <mxRectangle width="33" height="20" as="alternateBounds"/>
                    </mxGeometry>
                </mxCell>
                <mxCell id="us385vRcmkpqw7rTd-ix-24" value="6" style="shape=partialRectangle;html=1;whiteSpace=wrap;connectable=0;fillColor=none;top=0;left=0;bottom=0;right=0;overflow=hidden;pointerEvents=1;labelBackgroundColor=none;fontSize=12;" parent="us385vRcmkpqw7rTd-ix-21" vertex="1">
                    <mxGeometry x="81" width="39" height="20" as="geometry">
                        <mxRectangle width="39" height="20" as="alternateBounds"/>
                    </mxGeometry>
                </mxCell>
                <mxCell id="us385vRcmkpqw7rTd-ix-25" value="&amp;lt;3,6&amp;gt;" style="shape=partialRectangle;html=1;whiteSpace=wrap;connectable=0;fillColor=none;top=0;left=0;bottom=0;right=0;overflow=hidden;pointerEvents=1;labelBackgroundColor=none;fontSize=12;" parent="us385vRcmkpqw7rTd-ix-21" vertex="1">
                    <mxGeometry x="120" width="120" height="20" as="geometry">
                        <mxRectangle width="120" height="20" as="alternateBounds"/>
                    </mxGeometry>
                </mxCell>
                <mxCell id="us385vRcmkpqw7rTd-ix-26" style="shape=partialRectangle;html=1;whiteSpace=wrap;collapsible=0;dropTarget=0;pointerEvents=0;fillColor=none;top=0;left=0;bottom=0;right=0;points=[[0,0.5],[1,0.5]];portConstraint=eastwest;labelBackgroundColor=none;fontSize=12;" parent="us385vRcmkpqw7rTd-ix-0" vertex="1">
                    <mxGeometry y="120" width="240" height="20" as="geometry"/>
                </mxCell>
                <mxCell id="us385vRcmkpqw7rTd-ix-27" value="5" style="shape=partialRectangle;html=1;whiteSpace=wrap;connectable=0;fillColor=none;top=0;left=0;bottom=0;right=0;overflow=hidden;pointerEvents=1;labelBackgroundColor=none;fontSize=12;" parent="us385vRcmkpqw7rTd-ix-26" vertex="1">
                    <mxGeometry width="48" height="20" as="geometry">
                        <mxRectangle width="48" height="20" as="alternateBounds"/>
                    </mxGeometry>
                </mxCell>
                <mxCell id="us385vRcmkpqw7rTd-ix-28" value="3" style="shape=partialRectangle;html=1;whiteSpace=wrap;connectable=0;fillColor=none;top=0;left=0;bottom=0;right=0;overflow=hidden;pointerEvents=1;labelBackgroundColor=none;fontSize=12;" parent="us385vRcmkpqw7rTd-ix-26" vertex="1">
                    <mxGeometry x="48" width="33" height="20" as="geometry">
                        <mxRectangle width="33" height="20" as="alternateBounds"/>
                    </mxGeometry>
                </mxCell>
                <mxCell id="us385vRcmkpqw7rTd-ix-29" value="6" style="shape=partialRectangle;html=1;whiteSpace=wrap;connectable=0;fillColor=none;top=0;left=0;bottom=0;right=0;overflow=hidden;pointerEvents=1;labelBackgroundColor=none;fontSize=12;" parent="us385vRcmkpqw7rTd-ix-26" vertex="1">
                    <mxGeometry x="81" width="39" height="20" as="geometry">
                        <mxRectangle width="39" height="20" as="alternateBounds"/>
                    </mxGeometry>
                </mxCell>
                <mxCell id="us385vRcmkpqw7rTd-ix-30" value="&amp;lt;3,4,5,6&amp;gt;" style="shape=partialRectangle;html=1;whiteSpace=wrap;connectable=0;fillColor=none;top=0;left=0;bottom=0;right=0;overflow=hidden;pointerEvents=1;labelBackgroundColor=none;fontSize=12;" parent="us385vRcmkpqw7rTd-ix-26" vertex="1">
                    <mxGeometry x="120" width="120" height="20" as="geometry">
                        <mxRectangle width="120" height="20" as="alternateBounds"/>
                    </mxGeometry>
                </mxCell>
                <mxCell id="us385vRcmkpqw7rTd-ix-31" value="secondsToday" style="shape=table;startSize=20;container=1;collapsible=0;childLayout=tableLayout;fontStyle=1;align=center;pointerEvents=1;labelBackgroundColor=none;fontSize=12;fillColor=#647687;fontColor=#ffffff;strokeColor=#314354;" parent="xdLsrixDeuydQexfM_2I-1" vertex="1">
                    <mxGeometry x="300" y="60" width="240" height="60" as="geometry"/>
                </mxCell>
                <mxCell id="us385vRcmkpqw7rTd-ix-32" value="" style="shape=partialRectangle;html=1;whiteSpace=wrap;collapsible=0;dropTarget=0;pointerEvents=0;fillColor=none;top=0;left=0;bottom=0;right=0;points=[[0,0.5],[1,0.5]];portConstraint=eastwest;labelBackgroundColor=none;fontSize=12;" parent="us385vRcmkpqw7rTd-ix-31" vertex="1">
                    <mxGeometry y="20" width="240" height="20" as="geometry"/>
                </mxCell>
                <mxCell id="us385vRcmkpqw7rTd-ix-33" value="Pair id" style="shape=partialRectangle;html=1;whiteSpace=wrap;connectable=0;fillColor=#ffe6cc;top=0;left=0;bottom=0;right=0;overflow=hidden;pointerEvents=1;labelBackgroundColor=none;fontSize=12;strokeColor=#000000;fontStyle=1;strokeWidth=1;" parent="us385vRcmkpqw7rTd-ix-32" vertex="1">
                    <mxGeometry width="48" height="20" as="geometry">
                        <mxRectangle width="48" height="20" as="alternateBounds"/>
                    </mxGeometry>
                </mxCell>
                <mxCell id="us385vRcmkpqw7rTd-ix-34" value="def" style="shape=partialRectangle;html=1;whiteSpace=wrap;connectable=0;fillColor=#ffe6cc;top=0;left=0;bottom=0;right=0;overflow=hidden;pointerEvents=1;labelBackgroundColor=none;fontSize=12;strokeColor=#000000;fontStyle=1;strokeWidth=1;" parent="us385vRcmkpqw7rTd-ix-32" vertex="1">
                    <mxGeometry x="48" width="33" height="20" as="geometry">
                        <mxRectangle width="33" height="20" as="alternateBounds"/>
                    </mxGeometry>
                </mxCell>
                <mxCell id="us385vRcmkpqw7rTd-ix-35" value="use" style="shape=partialRectangle;html=1;whiteSpace=wrap;connectable=0;fillColor=#ffe6cc;top=0;left=0;bottom=0;right=0;overflow=hidden;pointerEvents=1;labelBackgroundColor=none;fontSize=12;strokeColor=#000000;fontStyle=1;strokeWidth=1;" parent="us385vRcmkpqw7rTd-ix-32" vertex="1">
                    <mxGeometry x="81" width="39" height="20" as="geometry">
                        <mxRectangle width="39" height="20" as="alternateBounds"/>
                    </mxGeometry>
                </mxCell>
                <mxCell id="us385vRcmkpqw7rTd-ix-36" value="path" style="shape=partialRectangle;html=1;whiteSpace=wrap;connectable=0;fillColor=#ffe6cc;top=0;left=0;bottom=0;right=0;overflow=hidden;pointerEvents=1;labelBackgroundColor=none;fontSize=12;strokeColor=#000000;fontStyle=1;strokeWidth=1;" parent="us385vRcmkpqw7rTd-ix-32" vertex="1">
                    <mxGeometry x="120" width="120" height="20" as="geometry">
                        <mxRectangle width="120" height="20" as="alternateBounds"/>
                    </mxGeometry>
                </mxCell>
                <mxCell id="us385vRcmkpqw7rTd-ix-37" value="" style="shape=partialRectangle;html=1;whiteSpace=wrap;collapsible=0;dropTarget=0;pointerEvents=0;fillColor=none;top=0;left=0;bottom=0;right=0;points=[[0,0.5],[1,0.5]];portConstraint=eastwest;labelBackgroundColor=none;fontSize=12;" parent="us385vRcmkpqw7rTd-ix-31" vertex="1">
                    <mxGeometry y="40" width="240" height="20" as="geometry"/>
                </mxCell>
                <mxCell id="us385vRcmkpqw7rTd-ix-38" value="1" style="shape=partialRectangle;html=1;whiteSpace=wrap;connectable=0;fillColor=none;top=0;left=0;bottom=0;right=0;overflow=hidden;pointerEvents=1;labelBackgroundColor=none;fontSize=12;fontStyle=1;fontColor=#FF6666;" parent="us385vRcmkpqw7rTd-ix-37" vertex="1">
                    <mxGeometry width="48" height="20" as="geometry">
                        <mxRectangle width="48" height="20" as="alternateBounds"/>
                    </mxGeometry>
                </mxCell>
                <mxCell id="us385vRcmkpqw7rTd-ix-39" value="0" style="shape=partialRectangle;html=1;whiteSpace=wrap;connectable=0;fillColor=none;top=0;left=0;bottom=0;right=0;overflow=hidden;pointerEvents=1;labelBackgroundColor=none;fontSize=12;fontStyle=1;fontColor=#FF6666;" parent="us385vRcmkpqw7rTd-ix-37" vertex="1">
                    <mxGeometry x="48" width="33" height="20" as="geometry">
                        <mxRectangle width="33" height="20" as="alternateBounds"/>
                    </mxGeometry>
                </mxCell>
                <mxCell id="us385vRcmkpqw7rTd-ix-40" value="1" style="shape=partialRectangle;html=1;whiteSpace=wrap;connectable=0;fillColor=none;top=0;left=0;bottom=0;right=0;overflow=hidden;pointerEvents=1;labelBackgroundColor=none;fontSize=12;fontStyle=1;fontColor=#FF6666;" parent="us385vRcmkpqw7rTd-ix-37" vertex="1">
                    <mxGeometry x="81" width="39" height="20" as="geometry">
                        <mxRectangle width="39" height="20" as="alternateBounds"/>
                    </mxGeometry>
                </mxCell>
                <mxCell id="us385vRcmkpqw7rTd-ix-41" value="&amp;lt;0,1&amp;gt;" style="shape=partialRectangle;html=1;whiteSpace=wrap;connectable=0;fillColor=none;top=0;left=0;bottom=0;right=0;overflow=hidden;pointerEvents=1;labelBackgroundColor=none;fontSize=12;fontStyle=1;fontColor=#FF6666;" parent="us385vRcmkpqw7rTd-ix-37" vertex="1">
                    <mxGeometry x="120" width="120" height="20" as="geometry">
                        <mxRectangle width="120" height="20" as="alternateBounds"/>
                    </mxGeometry>
                </mxCell>
                <mxCell id="us385vRcmkpqw7rTd-ix-42" value="e" style="shape=table;startSize=20;container=1;collapsible=0;childLayout=tableLayout;fontStyle=1;align=center;pointerEvents=1;labelBackgroundColor=none;fontSize=12;fillColor=#647687;fontColor=#ffffff;strokeColor=#314354;" parent="xdLsrixDeuydQexfM_2I-1" vertex="1">
                    <mxGeometry x="560" y="60" width="240" height="60" as="geometry"/>
                </mxCell>
                <mxCell id="us385vRcmkpqw7rTd-ix-43" value="" style="shape=partialRectangle;html=1;whiteSpace=wrap;collapsible=0;dropTarget=0;pointerEvents=0;fillColor=none;top=0;left=0;bottom=0;right=0;points=[[0,0.5],[1,0.5]];portConstraint=eastwest;labelBackgroundColor=none;fontSize=12;" parent="us385vRcmkpqw7rTd-ix-42" vertex="1">
                    <mxGeometry y="20" width="240" height="20" as="geometry"/>
                </mxCell>
                <mxCell id="us385vRcmkpqw7rTd-ix-44" value="Pair id" style="shape=partialRectangle;html=1;whiteSpace=wrap;connectable=0;fillColor=#ffe6cc;top=0;left=0;bottom=0;right=0;overflow=hidden;pointerEvents=1;labelBackgroundColor=none;fontSize=12;strokeColor=#000000;fontStyle=1;strokeWidth=1;" parent="us385vRcmkpqw7rTd-ix-43" vertex="1">
                    <mxGeometry width="48" height="20" as="geometry">
                        <mxRectangle width="48" height="20" as="alternateBounds"/>
                    </mxGeometry>
                </mxCell>
                <mxCell id="us385vRcmkpqw7rTd-ix-45" value="def" style="shape=partialRectangle;html=1;whiteSpace=wrap;connectable=0;fillColor=#ffe6cc;top=0;left=0;bottom=0;right=0;overflow=hidden;pointerEvents=1;labelBackgroundColor=none;fontSize=12;strokeColor=#000000;fontStyle=1;strokeWidth=1;" parent="us385vRcmkpqw7rTd-ix-43" vertex="1">
                    <mxGeometry x="48" width="33" height="20" as="geometry">
                        <mxRectangle width="33" height="20" as="alternateBounds"/>
                    </mxGeometry>
                </mxCell>
                <mxCell id="us385vRcmkpqw7rTd-ix-46" value="use" style="shape=partialRectangle;html=1;whiteSpace=wrap;connectable=0;fillColor=#ffe6cc;top=0;left=0;bottom=0;right=0;overflow=hidden;pointerEvents=1;labelBackgroundColor=none;fontSize=12;strokeColor=#000000;fontStyle=1;strokeWidth=1;" parent="us385vRcmkpqw7rTd-ix-43" vertex="1">
                    <mxGeometry x="81" width="39" height="20" as="geometry">
                        <mxRectangle width="39" height="20" as="alternateBounds"/>
                    </mxGeometry>
                </mxCell>
                <mxCell id="us385vRcmkpqw7rTd-ix-47" value="path" style="shape=partialRectangle;html=1;whiteSpace=wrap;connectable=0;fillColor=#ffe6cc;top=0;left=0;bottom=0;right=0;overflow=hidden;pointerEvents=1;labelBackgroundColor=none;fontSize=12;strokeColor=#000000;fontStyle=1;strokeWidth=1;" parent="us385vRcmkpqw7rTd-ix-43" vertex="1">
                    <mxGeometry x="120" width="120" height="20" as="geometry">
                        <mxRectangle width="120" height="20" as="alternateBounds"/>
                    </mxGeometry>
                </mxCell>
                <mxCell id="us385vRcmkpqw7rTd-ix-48" value="" style="shape=partialRectangle;html=1;whiteSpace=wrap;collapsible=0;dropTarget=0;pointerEvents=0;fillColor=none;top=0;left=0;bottom=0;right=0;points=[[0,0.5],[1,0.5]];portConstraint=eastwest;labelBackgroundColor=none;fontSize=12;" parent="us385vRcmkpqw7rTd-ix-42" vertex="1">
                    <mxGeometry y="40" width="240" height="20" as="geometry"/>
                </mxCell>
                <mxCell id="us385vRcmkpqw7rTd-ix-49" value="1" style="shape=partialRectangle;html=1;whiteSpace=wrap;connectable=0;fillColor=none;top=0;left=0;bottom=0;right=0;overflow=hidden;pointerEvents=1;labelBackgroundColor=none;fontSize=12;fontStyle=1;fontColor=#FF6666;" parent="us385vRcmkpqw7rTd-ix-48" vertex="1">
                    <mxGeometry width="48" height="20" as="geometry">
                        <mxRectangle width="48" height="20" as="alternateBounds"/>
                    </mxGeometry>
                </mxCell>
                <mxCell id="us385vRcmkpqw7rTd-ix-50" value="4" style="shape=partialRectangle;html=1;whiteSpace=wrap;connectable=0;fillColor=none;top=0;left=0;bottom=0;right=0;overflow=hidden;pointerEvents=1;labelBackgroundColor=none;fontSize=12;fontStyle=1;fontColor=#FF6666;" parent="us385vRcmkpqw7rTd-ix-48" vertex="1">
                    <mxGeometry x="48" width="33" height="20" as="geometry">
                        <mxRectangle width="33" height="20" as="alternateBounds"/>
                    </mxGeometry>
                </mxCell>
                <mxCell id="us385vRcmkpqw7rTd-ix-51" value="5" style="shape=partialRectangle;html=1;whiteSpace=wrap;connectable=0;fillColor=none;top=0;left=0;bottom=0;right=0;overflow=hidden;pointerEvents=1;labelBackgroundColor=none;fontSize=12;fontStyle=1;fontColor=#FF6666;" parent="us385vRcmkpqw7rTd-ix-48" vertex="1">
                    <mxGeometry x="81" width="39" height="20" as="geometry">
                        <mxRectangle width="39" height="20" as="alternateBounds"/>
                    </mxGeometry>
                </mxCell>
                <mxCell id="us385vRcmkpqw7rTd-ix-52" value="&amp;lt;4,5&amp;gt;" style="shape=partialRectangle;html=1;whiteSpace=wrap;connectable=0;fillColor=none;top=0;left=0;bottom=0;right=0;overflow=hidden;pointerEvents=1;labelBackgroundColor=none;fontSize=12;fontStyle=1;fontColor=#FF6666;" parent="us385vRcmkpqw7rTd-ix-48" vertex="1">
                    <mxGeometry x="120" width="120" height="20" as="geometry">
                        <mxRectangle width="120" height="20" as="alternateBounds"/>
                    </mxGeometry>
                </mxCell>
            </root>
        </mxGraphModel>
    </diagram>
    <diagram id="Mw-9NM75QtxaqEB8cohN" name="All-uses">
        <mxGraphModel dx="1380" dy="606" grid="0" gridSize="10" guides="1" tooltips="1" connect="1" arrows="1" fold="1" page="1" pageScale="1" pageWidth="850" pageHeight="1100" math="0" shadow="0">
            <root>
                <mxCell id="JyCmHmc_3WsDNZlwnx9a-0"/>
                <mxCell id="JyCmHmc_3WsDNZlwnx9a-1" parent="JyCmHmc_3WsDNZlwnx9a-0"/>
                <mxCell id="tBcZ_y5jLF1d1i2zQmOR-0" value="seconds" style="shape=table;startSize=20;container=1;collapsible=0;childLayout=tableLayout;fontStyle=1;align=center;pointerEvents=1;labelBackgroundColor=none;fontSize=12;fillColor=#647687;fontColor=#ffffff;strokeColor=#314354;" parent="JyCmHmc_3WsDNZlwnx9a-1" vertex="1">
                    <mxGeometry x="45" y="60" width="240" height="140" as="geometry"/>
                </mxCell>
                <mxCell id="tBcZ_y5jLF1d1i2zQmOR-1" value="" style="shape=partialRectangle;html=1;whiteSpace=wrap;collapsible=0;dropTarget=0;pointerEvents=0;fillColor=none;top=0;left=0;bottom=0;right=0;points=[[0,0.5],[1,0.5]];portConstraint=eastwest;labelBackgroundColor=none;fontSize=12;" parent="tBcZ_y5jLF1d1i2zQmOR-0" vertex="1">
                    <mxGeometry y="20" width="240" height="20" as="geometry"/>
                </mxCell>
                <mxCell id="tBcZ_y5jLF1d1i2zQmOR-2" value="Pair id" style="shape=partialRectangle;html=1;whiteSpace=wrap;connectable=0;fillColor=#ffe6cc;top=0;left=0;bottom=0;right=0;overflow=hidden;pointerEvents=1;labelBackgroundColor=none;fontSize=12;strokeColor=#000000;fontStyle=1;strokeWidth=1;" parent="tBcZ_y5jLF1d1i2zQmOR-1" vertex="1">
                    <mxGeometry width="48" height="20" as="geometry">
                        <mxRectangle width="48" height="20" as="alternateBounds"/>
                    </mxGeometry>
                </mxCell>
                <mxCell id="tBcZ_y5jLF1d1i2zQmOR-3" value="def" style="shape=partialRectangle;html=1;whiteSpace=wrap;connectable=0;fillColor=#ffe6cc;top=0;left=0;bottom=0;right=0;overflow=hidden;pointerEvents=1;labelBackgroundColor=none;fontSize=12;strokeColor=#000000;fontStyle=1;strokeWidth=1;" parent="tBcZ_y5jLF1d1i2zQmOR-1" vertex="1">
                    <mxGeometry x="48" width="33" height="20" as="geometry">
                        <mxRectangle width="33" height="20" as="alternateBounds"/>
                    </mxGeometry>
                </mxCell>
                <mxCell id="tBcZ_y5jLF1d1i2zQmOR-4" value="use" style="shape=partialRectangle;html=1;whiteSpace=wrap;connectable=0;fillColor=#ffe6cc;top=0;left=0;bottom=0;right=0;overflow=hidden;pointerEvents=1;labelBackgroundColor=none;fontSize=12;strokeColor=#000000;fontStyle=1;strokeWidth=1;" parent="tBcZ_y5jLF1d1i2zQmOR-1" vertex="1">
                    <mxGeometry x="81" width="39" height="20" as="geometry">
                        <mxRectangle width="39" height="20" as="alternateBounds"/>
                    </mxGeometry>
                </mxCell>
                <mxCell id="tBcZ_y5jLF1d1i2zQmOR-5" value="path" style="shape=partialRectangle;html=1;whiteSpace=wrap;connectable=0;fillColor=#ffe6cc;top=0;left=0;bottom=0;right=0;overflow=hidden;pointerEvents=1;labelBackgroundColor=none;fontSize=12;strokeColor=#000000;fontStyle=1;strokeWidth=1;" parent="tBcZ_y5jLF1d1i2zQmOR-1" vertex="1">
                    <mxGeometry x="120" width="120" height="20" as="geometry">
                        <mxRectangle width="120" height="20" as="alternateBounds"/>
                    </mxGeometry>
                </mxCell>
                <mxCell id="tBcZ_y5jLF1d1i2zQmOR-6" value="" style="shape=partialRectangle;html=1;whiteSpace=wrap;collapsible=0;dropTarget=0;pointerEvents=0;fillColor=none;top=0;left=0;bottom=0;right=0;points=[[0,0.5],[1,0.5]];portConstraint=eastwest;labelBackgroundColor=none;fontSize=12;" parent="tBcZ_y5jLF1d1i2zQmOR-0" vertex="1">
                    <mxGeometry y="40" width="240" height="20" as="geometry"/>
                </mxCell>
                <mxCell id="tBcZ_y5jLF1d1i2zQmOR-7" value="1" style="shape=partialRectangle;html=1;whiteSpace=wrap;connectable=0;fillColor=none;top=0;left=0;bottom=0;right=0;overflow=hidden;pointerEvents=1;labelBackgroundColor=none;fontSize=12;fontStyle=1;fontColor=#FF6666;" parent="tBcZ_y5jLF1d1i2zQmOR-6" vertex="1">
                    <mxGeometry width="48" height="20" as="geometry">
                        <mxRectangle width="48" height="20" as="alternateBounds"/>
                    </mxGeometry>
                </mxCell>
                <mxCell id="tBcZ_y5jLF1d1i2zQmOR-8" value="1" style="shape=partialRectangle;html=1;whiteSpace=wrap;connectable=0;fillColor=none;top=0;left=0;bottom=0;right=0;overflow=hidden;pointerEvents=1;labelBackgroundColor=none;fontSize=12;fontStyle=1;fontColor=#FF6666;" parent="tBcZ_y5jLF1d1i2zQmOR-6" vertex="1">
                    <mxGeometry x="48" width="33" height="20" as="geometry">
                        <mxRectangle width="33" height="20" as="alternateBounds"/>
                    </mxGeometry>
                </mxCell>
                <mxCell id="tBcZ_y5jLF1d1i2zQmOR-9" value="3" style="shape=partialRectangle;html=1;whiteSpace=wrap;connectable=0;fillColor=none;top=0;left=0;bottom=0;right=0;overflow=hidden;pointerEvents=1;labelBackgroundColor=none;fontSize=12;fontStyle=1;fontColor=#FF6666;" parent="tBcZ_y5jLF1d1i2zQmOR-6" vertex="1">
                    <mxGeometry x="81" width="39" height="20" as="geometry">
                        <mxRectangle width="39" height="20" as="alternateBounds"/>
                    </mxGeometry>
                </mxCell>
                <mxCell id="tBcZ_y5jLF1d1i2zQmOR-10" value="&amp;lt;1,2,3&amp;gt;" style="shape=partialRectangle;html=1;whiteSpace=wrap;connectable=0;fillColor=none;top=0;left=0;bottom=0;right=0;overflow=hidden;pointerEvents=1;labelBackgroundColor=none;fontSize=12;fontStyle=1;fontColor=#FF6666;" parent="tBcZ_y5jLF1d1i2zQmOR-6" vertex="1">
                    <mxGeometry x="120" width="120" height="20" as="geometry">
                        <mxRectangle width="120" height="20" as="alternateBounds"/>
                    </mxGeometry>
                </mxCell>
                <mxCell id="tBcZ_y5jLF1d1i2zQmOR-11" style="shape=partialRectangle;html=1;whiteSpace=wrap;collapsible=0;dropTarget=0;pointerEvents=0;fillColor=none;top=0;left=0;bottom=0;right=0;points=[[0,0.5],[1,0.5]];portConstraint=eastwest;labelBackgroundColor=none;fontSize=12;" parent="tBcZ_y5jLF1d1i2zQmOR-0" vertex="1">
                    <mxGeometry y="60" width="240" height="20" as="geometry"/>
                </mxCell>
                <mxCell id="tBcZ_y5jLF1d1i2zQmOR-12" value="2" style="shape=partialRectangle;html=1;whiteSpace=wrap;connectable=0;fillColor=none;top=0;left=0;bottom=0;right=0;overflow=hidden;pointerEvents=1;labelBackgroundColor=none;fontSize=12;fontStyle=1;fontColor=#FF6666;" parent="tBcZ_y5jLF1d1i2zQmOR-11" vertex="1">
                    <mxGeometry width="48" height="20" as="geometry">
                        <mxRectangle width="48" height="20" as="alternateBounds"/>
                    </mxGeometry>
                </mxCell>
                <mxCell id="tBcZ_y5jLF1d1i2zQmOR-13" value="1" style="shape=partialRectangle;html=1;whiteSpace=wrap;connectable=0;fillColor=none;top=0;left=0;bottom=0;right=0;overflow=hidden;pointerEvents=1;labelBackgroundColor=none;fontSize=12;fontStyle=1;fontColor=#FF6666;" parent="tBcZ_y5jLF1d1i2zQmOR-11" vertex="1">
                    <mxGeometry x="48" width="33" height="20" as="geometry">
                        <mxRectangle width="33" height="20" as="alternateBounds"/>
                    </mxGeometry>
                </mxCell>
                <mxCell id="tBcZ_y5jLF1d1i2zQmOR-14" value="6" style="shape=partialRectangle;html=1;whiteSpace=wrap;connectable=0;fillColor=none;top=0;left=0;bottom=0;right=0;overflow=hidden;pointerEvents=1;labelBackgroundColor=none;fontSize=12;fontStyle=1;fontColor=#FF6666;" parent="tBcZ_y5jLF1d1i2zQmOR-11" vertex="1">
                    <mxGeometry x="81" width="39" height="20" as="geometry">
                        <mxRectangle width="39" height="20" as="alternateBounds"/>
                    </mxGeometry>
                </mxCell>
                <mxCell id="tBcZ_y5jLF1d1i2zQmOR-15" value="&amp;lt;1,2,6&amp;gt;" style="shape=partialRectangle;html=1;whiteSpace=wrap;connectable=0;fillColor=none;top=0;left=0;bottom=0;right=0;overflow=hidden;pointerEvents=1;labelBackgroundColor=none;fontSize=12;fontStyle=1;fontColor=#FF6666;" parent="tBcZ_y5jLF1d1i2zQmOR-11" vertex="1">
                    <mxGeometry x="120" width="120" height="20" as="geometry">
                        <mxRectangle width="120" height="20" as="alternateBounds"/>
                    </mxGeometry>
                </mxCell>
                <mxCell id="tBcZ_y5jLF1d1i2zQmOR-16" style="shape=partialRectangle;html=1;whiteSpace=wrap;collapsible=0;dropTarget=0;pointerEvents=0;fillColor=none;top=0;left=0;bottom=0;right=0;points=[[0,0.5],[1,0.5]];portConstraint=eastwest;labelBackgroundColor=none;fontSize=12;" parent="tBcZ_y5jLF1d1i2zQmOR-0" vertex="1">
                    <mxGeometry y="80" width="240" height="20" as="geometry"/>
                </mxCell>
                <mxCell id="tBcZ_y5jLF1d1i2zQmOR-17" value="3" style="shape=partialRectangle;html=1;whiteSpace=wrap;connectable=0;fillColor=none;top=0;left=0;bottom=0;right=0;overflow=hidden;pointerEvents=1;labelBackgroundColor=none;fontSize=12;fontStyle=1;fontColor=#FF6666;" parent="tBcZ_y5jLF1d1i2zQmOR-16" vertex="1">
                    <mxGeometry width="48" height="20" as="geometry">
                        <mxRectangle width="48" height="20" as="alternateBounds"/>
                    </mxGeometry>
                </mxCell>
                <mxCell id="tBcZ_y5jLF1d1i2zQmOR-18" value="3" style="shape=partialRectangle;html=1;whiteSpace=wrap;connectable=0;fillColor=none;top=0;left=0;bottom=0;right=0;overflow=hidden;pointerEvents=1;labelBackgroundColor=none;fontSize=12;fontStyle=1;fontColor=#FF6666;" parent="tBcZ_y5jLF1d1i2zQmOR-16" vertex="1">
                    <mxGeometry x="48" width="33" height="20" as="geometry">
                        <mxRectangle width="33" height="20" as="alternateBounds"/>
                    </mxGeometry>
                </mxCell>
                <mxCell id="tBcZ_y5jLF1d1i2zQmOR-19" value="3" style="shape=partialRectangle;html=1;whiteSpace=wrap;connectable=0;fillColor=none;top=0;left=0;bottom=0;right=0;overflow=hidden;pointerEvents=1;labelBackgroundColor=none;fontSize=12;fontStyle=1;fontColor=#FF6666;" parent="tBcZ_y5jLF1d1i2zQmOR-16" vertex="1">
                    <mxGeometry x="81" width="39" height="20" as="geometry">
                        <mxRectangle width="39" height="20" as="alternateBounds"/>
                    </mxGeometry>
                </mxCell>
                <mxCell id="tBcZ_y5jLF1d1i2zQmOR-20" value="&lt;span&gt;&amp;lt;3,3&amp;gt;&lt;/span&gt;" style="shape=partialRectangle;html=1;whiteSpace=wrap;connectable=0;fillColor=none;top=0;left=0;bottom=0;right=0;overflow=hidden;pointerEvents=1;labelBackgroundColor=none;fontSize=12;fontStyle=1;fontColor=#FF6666;" parent="tBcZ_y5jLF1d1i2zQmOR-16" vertex="1">
                    <mxGeometry x="120" width="120" height="20" as="geometry">
                        <mxRectangle width="120" height="20" as="alternateBounds"/>
                    </mxGeometry>
                </mxCell>
                <mxCell id="tBcZ_y5jLF1d1i2zQmOR-21" style="shape=partialRectangle;html=1;whiteSpace=wrap;collapsible=0;dropTarget=0;pointerEvents=0;fillColor=none;top=0;left=0;bottom=0;right=0;points=[[0,0.5],[1,0.5]];portConstraint=eastwest;labelBackgroundColor=none;fontSize=12;" parent="tBcZ_y5jLF1d1i2zQmOR-0" vertex="1">
                    <mxGeometry y="100" width="240" height="20" as="geometry"/>
                </mxCell>
                <mxCell id="tBcZ_y5jLF1d1i2zQmOR-22" value="4" style="shape=partialRectangle;html=1;whiteSpace=wrap;connectable=0;fillColor=none;top=0;left=0;bottom=0;right=0;overflow=hidden;pointerEvents=1;labelBackgroundColor=none;fontSize=12;fontStyle=1;fontColor=#FF6666;" parent="tBcZ_y5jLF1d1i2zQmOR-21" vertex="1">
                    <mxGeometry width="48" height="20" as="geometry">
                        <mxRectangle width="48" height="20" as="alternateBounds"/>
                    </mxGeometry>
                </mxCell>
                <mxCell id="tBcZ_y5jLF1d1i2zQmOR-23" value="3" style="shape=partialRectangle;html=1;whiteSpace=wrap;connectable=0;fillColor=none;top=0;left=0;bottom=0;right=0;overflow=hidden;pointerEvents=1;labelBackgroundColor=none;fontSize=12;fontStyle=1;fontColor=#FF6666;" parent="tBcZ_y5jLF1d1i2zQmOR-21" vertex="1">
                    <mxGeometry x="48" width="33" height="20" as="geometry">
                        <mxRectangle width="33" height="20" as="alternateBounds"/>
                    </mxGeometry>
                </mxCell>
                <mxCell id="tBcZ_y5jLF1d1i2zQmOR-24" value="6" style="shape=partialRectangle;html=1;whiteSpace=wrap;connectable=0;fillColor=none;top=0;left=0;bottom=0;right=0;overflow=hidden;pointerEvents=1;labelBackgroundColor=none;fontSize=12;fontStyle=1;fontColor=#FF6666;" parent="tBcZ_y5jLF1d1i2zQmOR-21" vertex="1">
                    <mxGeometry x="81" width="39" height="20" as="geometry">
                        <mxRectangle width="39" height="20" as="alternateBounds"/>
                    </mxGeometry>
                </mxCell>
                <mxCell id="tBcZ_y5jLF1d1i2zQmOR-25" value="&amp;lt;3,6&amp;gt;" style="shape=partialRectangle;html=1;whiteSpace=wrap;connectable=0;fillColor=none;top=0;left=0;bottom=0;right=0;overflow=hidden;pointerEvents=1;labelBackgroundColor=none;fontSize=12;fontStyle=1;fontColor=#FF6666;" parent="tBcZ_y5jLF1d1i2zQmOR-21" vertex="1">
                    <mxGeometry x="120" width="120" height="20" as="geometry">
                        <mxRectangle width="120" height="20" as="alternateBounds"/>
                    </mxGeometry>
                </mxCell>
                <mxCell id="tBcZ_y5jLF1d1i2zQmOR-26" style="shape=partialRectangle;html=1;whiteSpace=wrap;collapsible=0;dropTarget=0;pointerEvents=0;fillColor=none;top=0;left=0;bottom=0;right=0;points=[[0,0.5],[1,0.5]];portConstraint=eastwest;labelBackgroundColor=none;fontSize=12;fontStyle=0" parent="tBcZ_y5jLF1d1i2zQmOR-0" vertex="1">
                    <mxGeometry y="120" width="240" height="20" as="geometry"/>
                </mxCell>
                <mxCell id="tBcZ_y5jLF1d1i2zQmOR-27" value="5" style="shape=partialRectangle;html=1;whiteSpace=wrap;connectable=0;fillColor=none;top=0;left=0;bottom=0;right=0;overflow=hidden;pointerEvents=1;labelBackgroundColor=none;fontSize=12;fontStyle=0;fontColor=#000000;" parent="tBcZ_y5jLF1d1i2zQmOR-26" vertex="1">
                    <mxGeometry width="48" height="20" as="geometry">
                        <mxRectangle width="48" height="20" as="alternateBounds"/>
                    </mxGeometry>
                </mxCell>
                <mxCell id="tBcZ_y5jLF1d1i2zQmOR-28" value="3" style="shape=partialRectangle;html=1;whiteSpace=wrap;connectable=0;fillColor=none;top=0;left=0;bottom=0;right=0;overflow=hidden;pointerEvents=1;labelBackgroundColor=none;fontSize=12;fontStyle=0;fontColor=#000000;" parent="tBcZ_y5jLF1d1i2zQmOR-26" vertex="1">
                    <mxGeometry x="48" width="33" height="20" as="geometry">
                        <mxRectangle width="33" height="20" as="alternateBounds"/>
                    </mxGeometry>
                </mxCell>
                <mxCell id="tBcZ_y5jLF1d1i2zQmOR-29" value="6" style="shape=partialRectangle;html=1;whiteSpace=wrap;connectable=0;fillColor=none;top=0;left=0;bottom=0;right=0;overflow=hidden;pointerEvents=1;labelBackgroundColor=none;fontSize=12;fontStyle=0;fontColor=#000000;" parent="tBcZ_y5jLF1d1i2zQmOR-26" vertex="1">
                    <mxGeometry x="81" width="39" height="20" as="geometry">
                        <mxRectangle width="39" height="20" as="alternateBounds"/>
                    </mxGeometry>
                </mxCell>
                <mxCell id="tBcZ_y5jLF1d1i2zQmOR-30" value="&amp;lt;3,4,5,6&amp;gt;" style="shape=partialRectangle;html=1;whiteSpace=wrap;connectable=0;fillColor=none;top=0;left=0;bottom=0;right=0;overflow=hidden;pointerEvents=1;labelBackgroundColor=none;fontSize=12;fontStyle=0;fontColor=#000000;" parent="tBcZ_y5jLF1d1i2zQmOR-26" vertex="1">
                    <mxGeometry x="120" width="120" height="20" as="geometry">
                        <mxRectangle width="120" height="20" as="alternateBounds"/>
                    </mxGeometry>
                </mxCell>
                <mxCell id="tBcZ_y5jLF1d1i2zQmOR-31" value="secondsToday" style="shape=table;startSize=20;container=1;collapsible=0;childLayout=tableLayout;fontStyle=1;align=center;pointerEvents=1;labelBackgroundColor=none;fontSize=12;fillColor=#647687;fontColor=#ffffff;strokeColor=#314354;" parent="JyCmHmc_3WsDNZlwnx9a-1" vertex="1">
                    <mxGeometry x="300" y="60" width="240" height="60" as="geometry"/>
                </mxCell>
                <mxCell id="tBcZ_y5jLF1d1i2zQmOR-32" value="" style="shape=partialRectangle;html=1;whiteSpace=wrap;collapsible=0;dropTarget=0;pointerEvents=0;fillColor=none;top=0;left=0;bottom=0;right=0;points=[[0,0.5],[1,0.5]];portConstraint=eastwest;labelBackgroundColor=none;fontSize=12;" parent="tBcZ_y5jLF1d1i2zQmOR-31" vertex="1">
                    <mxGeometry y="20" width="240" height="20" as="geometry"/>
                </mxCell>
                <mxCell id="tBcZ_y5jLF1d1i2zQmOR-33" value="Pair id" style="shape=partialRectangle;html=1;whiteSpace=wrap;connectable=0;fillColor=#ffe6cc;top=0;left=0;bottom=0;right=0;overflow=hidden;pointerEvents=1;labelBackgroundColor=none;fontSize=12;strokeColor=#000000;fontStyle=1;strokeWidth=1;" parent="tBcZ_y5jLF1d1i2zQmOR-32" vertex="1">
                    <mxGeometry width="48" height="20" as="geometry">
                        <mxRectangle width="48" height="20" as="alternateBounds"/>
                    </mxGeometry>
                </mxCell>
                <mxCell id="tBcZ_y5jLF1d1i2zQmOR-34" value="def" style="shape=partialRectangle;html=1;whiteSpace=wrap;connectable=0;fillColor=#ffe6cc;top=0;left=0;bottom=0;right=0;overflow=hidden;pointerEvents=1;labelBackgroundColor=none;fontSize=12;strokeColor=#000000;fontStyle=1;strokeWidth=1;" parent="tBcZ_y5jLF1d1i2zQmOR-32" vertex="1">
                    <mxGeometry x="48" width="33" height="20" as="geometry">
                        <mxRectangle width="33" height="20" as="alternateBounds"/>
                    </mxGeometry>
                </mxCell>
                <mxCell id="tBcZ_y5jLF1d1i2zQmOR-35" value="use" style="shape=partialRectangle;html=1;whiteSpace=wrap;connectable=0;fillColor=#ffe6cc;top=0;left=0;bottom=0;right=0;overflow=hidden;pointerEvents=1;labelBackgroundColor=none;fontSize=12;strokeColor=#000000;fontStyle=1;strokeWidth=1;" parent="tBcZ_y5jLF1d1i2zQmOR-32" vertex="1">
                    <mxGeometry x="81" width="39" height="20" as="geometry">
                        <mxRectangle width="39" height="20" as="alternateBounds"/>
                    </mxGeometry>
                </mxCell>
                <mxCell id="tBcZ_y5jLF1d1i2zQmOR-36" value="path" style="shape=partialRectangle;html=1;whiteSpace=wrap;connectable=0;fillColor=#ffe6cc;top=0;left=0;bottom=0;right=0;overflow=hidden;pointerEvents=1;labelBackgroundColor=none;fontSize=12;strokeColor=#000000;fontStyle=1;strokeWidth=1;" parent="tBcZ_y5jLF1d1i2zQmOR-32" vertex="1">
                    <mxGeometry x="120" width="120" height="20" as="geometry">
                        <mxRectangle width="120" height="20" as="alternateBounds"/>
                    </mxGeometry>
                </mxCell>
                <mxCell id="tBcZ_y5jLF1d1i2zQmOR-37" value="" style="shape=partialRectangle;html=1;whiteSpace=wrap;collapsible=0;dropTarget=0;pointerEvents=0;fillColor=none;top=0;left=0;bottom=0;right=0;points=[[0,0.5],[1,0.5]];portConstraint=eastwest;labelBackgroundColor=none;fontSize=12;" parent="tBcZ_y5jLF1d1i2zQmOR-31" vertex="1">
                    <mxGeometry y="40" width="240" height="20" as="geometry"/>
                </mxCell>
                <mxCell id="tBcZ_y5jLF1d1i2zQmOR-38" value="1" style="shape=partialRectangle;html=1;whiteSpace=wrap;connectable=0;fillColor=none;top=0;left=0;bottom=0;right=0;overflow=hidden;pointerEvents=1;labelBackgroundColor=none;fontSize=12;fontStyle=1;fontColor=#FF6666;" parent="tBcZ_y5jLF1d1i2zQmOR-37" vertex="1">
                    <mxGeometry width="48" height="20" as="geometry">
                        <mxRectangle width="48" height="20" as="alternateBounds"/>
                    </mxGeometry>
                </mxCell>
                <mxCell id="tBcZ_y5jLF1d1i2zQmOR-39" value="0" style="shape=partialRectangle;html=1;whiteSpace=wrap;connectable=0;fillColor=none;top=0;left=0;bottom=0;right=0;overflow=hidden;pointerEvents=1;labelBackgroundColor=none;fontSize=12;fontStyle=1;fontColor=#FF6666;" parent="tBcZ_y5jLF1d1i2zQmOR-37" vertex="1">
                    <mxGeometry x="48" width="33" height="20" as="geometry">
                        <mxRectangle width="33" height="20" as="alternateBounds"/>
                    </mxGeometry>
                </mxCell>
                <mxCell id="tBcZ_y5jLF1d1i2zQmOR-40" value="1" style="shape=partialRectangle;html=1;whiteSpace=wrap;connectable=0;fillColor=none;top=0;left=0;bottom=0;right=0;overflow=hidden;pointerEvents=1;labelBackgroundColor=none;fontSize=12;fontStyle=1;fontColor=#FF6666;" parent="tBcZ_y5jLF1d1i2zQmOR-37" vertex="1">
                    <mxGeometry x="81" width="39" height="20" as="geometry">
                        <mxRectangle width="39" height="20" as="alternateBounds"/>
                    </mxGeometry>
                </mxCell>
                <mxCell id="tBcZ_y5jLF1d1i2zQmOR-41" value="&amp;lt;0,1&amp;gt;" style="shape=partialRectangle;html=1;whiteSpace=wrap;connectable=0;fillColor=none;top=0;left=0;bottom=0;right=0;overflow=hidden;pointerEvents=1;labelBackgroundColor=none;fontSize=12;fontStyle=1;fontColor=#FF6666;" parent="tBcZ_y5jLF1d1i2zQmOR-37" vertex="1">
                    <mxGeometry x="120" width="120" height="20" as="geometry">
                        <mxRectangle width="120" height="20" as="alternateBounds"/>
                    </mxGeometry>
                </mxCell>
                <mxCell id="tBcZ_y5jLF1d1i2zQmOR-42" value="e" style="shape=table;startSize=20;container=1;collapsible=0;childLayout=tableLayout;fontStyle=1;align=center;pointerEvents=1;labelBackgroundColor=none;fontSize=12;fillColor=#647687;fontColor=#ffffff;strokeColor=#314354;" parent="JyCmHmc_3WsDNZlwnx9a-1" vertex="1">
                    <mxGeometry x="560" y="60" width="240" height="60" as="geometry"/>
                </mxCell>
                <mxCell id="tBcZ_y5jLF1d1i2zQmOR-43" value="" style="shape=partialRectangle;html=1;whiteSpace=wrap;collapsible=0;dropTarget=0;pointerEvents=0;fillColor=none;top=0;left=0;bottom=0;right=0;points=[[0,0.5],[1,0.5]];portConstraint=eastwest;labelBackgroundColor=none;fontSize=12;" parent="tBcZ_y5jLF1d1i2zQmOR-42" vertex="1">
                    <mxGeometry y="20" width="240" height="20" as="geometry"/>
                </mxCell>
                <mxCell id="tBcZ_y5jLF1d1i2zQmOR-44" value="Pair id" style="shape=partialRectangle;html=1;whiteSpace=wrap;connectable=0;fillColor=#ffe6cc;top=0;left=0;bottom=0;right=0;overflow=hidden;pointerEvents=1;labelBackgroundColor=none;fontSize=12;strokeColor=#000000;fontStyle=1;strokeWidth=1;" parent="tBcZ_y5jLF1d1i2zQmOR-43" vertex="1">
                    <mxGeometry width="48" height="20" as="geometry">
                        <mxRectangle width="48" height="20" as="alternateBounds"/>
                    </mxGeometry>
                </mxCell>
                <mxCell id="tBcZ_y5jLF1d1i2zQmOR-45" value="def" style="shape=partialRectangle;html=1;whiteSpace=wrap;connectable=0;fillColor=#ffe6cc;top=0;left=0;bottom=0;right=0;overflow=hidden;pointerEvents=1;labelBackgroundColor=none;fontSize=12;strokeColor=#000000;fontStyle=1;strokeWidth=1;" parent="tBcZ_y5jLF1d1i2zQmOR-43" vertex="1">
                    <mxGeometry x="48" width="33" height="20" as="geometry">
                        <mxRectangle width="33" height="20" as="alternateBounds"/>
                    </mxGeometry>
                </mxCell>
                <mxCell id="tBcZ_y5jLF1d1i2zQmOR-46" value="use" style="shape=partialRectangle;html=1;whiteSpace=wrap;connectable=0;fillColor=#ffe6cc;top=0;left=0;bottom=0;right=0;overflow=hidden;pointerEvents=1;labelBackgroundColor=none;fontSize=12;strokeColor=#000000;fontStyle=1;strokeWidth=1;" parent="tBcZ_y5jLF1d1i2zQmOR-43" vertex="1">
                    <mxGeometry x="81" width="39" height="20" as="geometry">
                        <mxRectangle width="39" height="20" as="alternateBounds"/>
                    </mxGeometry>
                </mxCell>
                <mxCell id="tBcZ_y5jLF1d1i2zQmOR-47" value="path" style="shape=partialRectangle;html=1;whiteSpace=wrap;connectable=0;fillColor=#ffe6cc;top=0;left=0;bottom=0;right=0;overflow=hidden;pointerEvents=1;labelBackgroundColor=none;fontSize=12;strokeColor=#000000;fontStyle=1;strokeWidth=1;" parent="tBcZ_y5jLF1d1i2zQmOR-43" vertex="1">
                    <mxGeometry x="120" width="120" height="20" as="geometry">
                        <mxRectangle width="120" height="20" as="alternateBounds"/>
                    </mxGeometry>
                </mxCell>
                <mxCell id="tBcZ_y5jLF1d1i2zQmOR-48" value="" style="shape=partialRectangle;html=1;whiteSpace=wrap;collapsible=0;dropTarget=0;pointerEvents=0;fillColor=none;top=0;left=0;bottom=0;right=0;points=[[0,0.5],[1,0.5]];portConstraint=eastwest;labelBackgroundColor=none;fontSize=12;" parent="tBcZ_y5jLF1d1i2zQmOR-42" vertex="1">
                    <mxGeometry y="40" width="240" height="20" as="geometry"/>
                </mxCell>
                <mxCell id="tBcZ_y5jLF1d1i2zQmOR-49" value="1" style="shape=partialRectangle;html=1;whiteSpace=wrap;connectable=0;fillColor=none;top=0;left=0;bottom=0;right=0;overflow=hidden;pointerEvents=1;labelBackgroundColor=none;fontSize=12;fontStyle=1;fontColor=#FF6666;" parent="tBcZ_y5jLF1d1i2zQmOR-48" vertex="1">
                    <mxGeometry width="48" height="20" as="geometry">
                        <mxRectangle width="48" height="20" as="alternateBounds"/>
                    </mxGeometry>
                </mxCell>
                <mxCell id="tBcZ_y5jLF1d1i2zQmOR-50" value="4" style="shape=partialRectangle;html=1;whiteSpace=wrap;connectable=0;fillColor=none;top=0;left=0;bottom=0;right=0;overflow=hidden;pointerEvents=1;labelBackgroundColor=none;fontSize=12;fontStyle=1;fontColor=#FF6666;" parent="tBcZ_y5jLF1d1i2zQmOR-48" vertex="1">
                    <mxGeometry x="48" width="33" height="20" as="geometry">
                        <mxRectangle width="33" height="20" as="alternateBounds"/>
                    </mxGeometry>
                </mxCell>
                <mxCell id="tBcZ_y5jLF1d1i2zQmOR-51" value="5" style="shape=partialRectangle;html=1;whiteSpace=wrap;connectable=0;fillColor=none;top=0;left=0;bottom=0;right=0;overflow=hidden;pointerEvents=1;labelBackgroundColor=none;fontSize=12;fontStyle=1;fontColor=#FF6666;" parent="tBcZ_y5jLF1d1i2zQmOR-48" vertex="1">
                    <mxGeometry x="81" width="39" height="20" as="geometry">
                        <mxRectangle width="39" height="20" as="alternateBounds"/>
                    </mxGeometry>
                </mxCell>
                <mxCell id="tBcZ_y5jLF1d1i2zQmOR-52" value="&amp;lt;4,5&amp;gt;" style="shape=partialRectangle;html=1;whiteSpace=wrap;connectable=0;fillColor=none;top=0;left=0;bottom=0;right=0;overflow=hidden;pointerEvents=1;labelBackgroundColor=none;fontSize=12;fontStyle=1;fontColor=#FF6666;" parent="tBcZ_y5jLF1d1i2zQmOR-48" vertex="1">
                    <mxGeometry x="120" width="120" height="20" as="geometry">
                        <mxRectangle width="120" height="20" as="alternateBounds"/>
                    </mxGeometry>
                </mxCell>
            </root>
        </mxGraphModel>
    </diagram>
    <diagram id="-rtLr9B_Ruy7tbszDf6e" name="All-c-uses">
        <mxGraphModel dx="933" dy="606" grid="0" gridSize="10" guides="1" tooltips="1" connect="1" arrows="1" fold="1" page="1" pageScale="1" pageWidth="850" pageHeight="1100" math="0" shadow="0">
            <root>
                <mxCell id="qLEMy5kPpG_fEMa3Z9im-0"/>
                <mxCell id="qLEMy5kPpG_fEMa3Z9im-1" parent="qLEMy5kPpG_fEMa3Z9im-0"/>
                <mxCell id="_LQmrGl0xkuqNisEkxN3-0" value="seconds" style="shape=table;startSize=20;container=1;collapsible=0;childLayout=tableLayout;fontStyle=1;align=center;pointerEvents=1;labelBackgroundColor=none;fontSize=12;fillColor=#647687;fontColor=#ffffff;strokeColor=#314354;" parent="qLEMy5kPpG_fEMa3Z9im-1" vertex="1">
                    <mxGeometry x="45" y="60" width="240" height="140" as="geometry"/>
                </mxCell>
                <mxCell id="_LQmrGl0xkuqNisEkxN3-1" value="" style="shape=partialRectangle;html=1;whiteSpace=wrap;collapsible=0;dropTarget=0;pointerEvents=0;fillColor=none;top=0;left=0;bottom=0;right=0;points=[[0,0.5],[1,0.5]];portConstraint=eastwest;labelBackgroundColor=none;fontSize=12;" parent="_LQmrGl0xkuqNisEkxN3-0" vertex="1">
                    <mxGeometry y="20" width="240" height="20" as="geometry"/>
                </mxCell>
                <mxCell id="_LQmrGl0xkuqNisEkxN3-2" value="Pair id" style="shape=partialRectangle;html=1;whiteSpace=wrap;connectable=0;fillColor=#ffe6cc;top=0;left=0;bottom=0;right=0;overflow=hidden;pointerEvents=1;labelBackgroundColor=none;fontSize=12;strokeColor=#000000;fontStyle=1;strokeWidth=1;" parent="_LQmrGl0xkuqNisEkxN3-1" vertex="1">
                    <mxGeometry width="48" height="20" as="geometry">
                        <mxRectangle width="48" height="20" as="alternateBounds"/>
                    </mxGeometry>
                </mxCell>
                <mxCell id="_LQmrGl0xkuqNisEkxN3-3" value="def" style="shape=partialRectangle;html=1;whiteSpace=wrap;connectable=0;fillColor=#ffe6cc;top=0;left=0;bottom=0;right=0;overflow=hidden;pointerEvents=1;labelBackgroundColor=none;fontSize=12;strokeColor=#000000;fontStyle=1;strokeWidth=1;" parent="_LQmrGl0xkuqNisEkxN3-1" vertex="1">
                    <mxGeometry x="48" width="33" height="20" as="geometry">
                        <mxRectangle width="33" height="20" as="alternateBounds"/>
                    </mxGeometry>
                </mxCell>
                <mxCell id="_LQmrGl0xkuqNisEkxN3-4" value="use" style="shape=partialRectangle;html=1;whiteSpace=wrap;connectable=0;fillColor=#ffe6cc;top=0;left=0;bottom=0;right=0;overflow=hidden;pointerEvents=1;labelBackgroundColor=none;fontSize=12;strokeColor=#000000;fontStyle=1;strokeWidth=1;" parent="_LQmrGl0xkuqNisEkxN3-1" vertex="1">
                    <mxGeometry x="81" width="39" height="20" as="geometry">
                        <mxRectangle width="39" height="20" as="alternateBounds"/>
                    </mxGeometry>
                </mxCell>
                <mxCell id="_LQmrGl0xkuqNisEkxN3-5" value="path" style="shape=partialRectangle;html=1;whiteSpace=wrap;connectable=0;fillColor=#ffe6cc;top=0;left=0;bottom=0;right=0;overflow=hidden;pointerEvents=1;labelBackgroundColor=none;fontSize=12;strokeColor=#000000;fontStyle=1;strokeWidth=1;" parent="_LQmrGl0xkuqNisEkxN3-1" vertex="1">
                    <mxGeometry x="120" width="120" height="20" as="geometry">
                        <mxRectangle width="120" height="20" as="alternateBounds"/>
                    </mxGeometry>
                </mxCell>
                <mxCell id="_LQmrGl0xkuqNisEkxN3-6" value="" style="shape=partialRectangle;html=1;whiteSpace=wrap;collapsible=0;dropTarget=0;pointerEvents=0;fillColor=none;top=0;left=0;bottom=0;right=0;points=[[0,0.5],[1,0.5]];portConstraint=eastwest;labelBackgroundColor=none;fontSize=12;" parent="_LQmrGl0xkuqNisEkxN3-0" vertex="1">
                    <mxGeometry y="40" width="240" height="20" as="geometry"/>
                </mxCell>
                <mxCell id="_LQmrGl0xkuqNisEkxN3-7" value="1" style="shape=partialRectangle;html=1;whiteSpace=wrap;connectable=0;fillColor=none;top=0;left=0;bottom=0;right=0;overflow=hidden;pointerEvents=1;labelBackgroundColor=none;fontSize=12;fontStyle=1;fontColor=#FF6666;" parent="_LQmrGl0xkuqNisEkxN3-6" vertex="1">
                    <mxGeometry width="48" height="20" as="geometry">
                        <mxRectangle width="48" height="20" as="alternateBounds"/>
                    </mxGeometry>
                </mxCell>
                <mxCell id="_LQmrGl0xkuqNisEkxN3-8" value="1" style="shape=partialRectangle;html=1;whiteSpace=wrap;connectable=0;fillColor=none;top=0;left=0;bottom=0;right=0;overflow=hidden;pointerEvents=1;labelBackgroundColor=none;fontSize=12;fontStyle=1;fontColor=#FF6666;" parent="_LQmrGl0xkuqNisEkxN3-6" vertex="1">
                    <mxGeometry x="48" width="33" height="20" as="geometry">
                        <mxRectangle width="33" height="20" as="alternateBounds"/>
                    </mxGeometry>
                </mxCell>
                <mxCell id="_LQmrGl0xkuqNisEkxN3-9" value="3" style="shape=partialRectangle;html=1;whiteSpace=wrap;connectable=0;fillColor=none;top=0;left=0;bottom=0;right=0;overflow=hidden;pointerEvents=1;labelBackgroundColor=none;fontSize=12;fontStyle=1;fontColor=#FF6666;" parent="_LQmrGl0xkuqNisEkxN3-6" vertex="1">
                    <mxGeometry x="81" width="39" height="20" as="geometry">
                        <mxRectangle width="39" height="20" as="alternateBounds"/>
                    </mxGeometry>
                </mxCell>
                <mxCell id="_LQmrGl0xkuqNisEkxN3-10" value="&amp;lt;1,2,3&amp;gt;" style="shape=partialRectangle;html=1;whiteSpace=wrap;connectable=0;fillColor=none;top=0;left=0;bottom=0;right=0;overflow=hidden;pointerEvents=1;labelBackgroundColor=none;fontSize=12;fontStyle=1;fontColor=#FF6666;" parent="_LQmrGl0xkuqNisEkxN3-6" vertex="1">
                    <mxGeometry x="120" width="120" height="20" as="geometry">
                        <mxRectangle width="120" height="20" as="alternateBounds"/>
                    </mxGeometry>
                </mxCell>
                <mxCell id="_LQmrGl0xkuqNisEkxN3-11" style="shape=partialRectangle;html=1;whiteSpace=wrap;collapsible=0;dropTarget=0;pointerEvents=0;fillColor=none;top=0;left=0;bottom=0;right=0;points=[[0,0.5],[1,0.5]];portConstraint=eastwest;labelBackgroundColor=none;fontSize=12;" parent="_LQmrGl0xkuqNisEkxN3-0" vertex="1">
                    <mxGeometry y="60" width="240" height="20" as="geometry"/>
                </mxCell>
                <mxCell id="_LQmrGl0xkuqNisEkxN3-12" value="2" style="shape=partialRectangle;html=1;whiteSpace=wrap;connectable=0;fillColor=none;top=0;left=0;bottom=0;right=0;overflow=hidden;pointerEvents=1;labelBackgroundColor=none;fontSize=12;fontStyle=1;fontColor=#FF6666;" parent="_LQmrGl0xkuqNisEkxN3-11" vertex="1">
                    <mxGeometry width="48" height="20" as="geometry">
                        <mxRectangle width="48" height="20" as="alternateBounds"/>
                    </mxGeometry>
                </mxCell>
                <mxCell id="_LQmrGl0xkuqNisEkxN3-13" value="1" style="shape=partialRectangle;html=1;whiteSpace=wrap;connectable=0;fillColor=none;top=0;left=0;bottom=0;right=0;overflow=hidden;pointerEvents=1;labelBackgroundColor=none;fontSize=12;fontStyle=1;fontColor=#FF6666;" parent="_LQmrGl0xkuqNisEkxN3-11" vertex="1">
                    <mxGeometry x="48" width="33" height="20" as="geometry">
                        <mxRectangle width="33" height="20" as="alternateBounds"/>
                    </mxGeometry>
                </mxCell>
                <mxCell id="_LQmrGl0xkuqNisEkxN3-14" value="6" style="shape=partialRectangle;html=1;whiteSpace=wrap;connectable=0;fillColor=none;top=0;left=0;bottom=0;right=0;overflow=hidden;pointerEvents=1;labelBackgroundColor=none;fontSize=12;fontStyle=1;fontColor=#FF6666;" parent="_LQmrGl0xkuqNisEkxN3-11" vertex="1">
                    <mxGeometry x="81" width="39" height="20" as="geometry">
                        <mxRectangle width="39" height="20" as="alternateBounds"/>
                    </mxGeometry>
                </mxCell>
                <mxCell id="_LQmrGl0xkuqNisEkxN3-15" value="&amp;lt;1,2,6&amp;gt;" style="shape=partialRectangle;html=1;whiteSpace=wrap;connectable=0;fillColor=none;top=0;left=0;bottom=0;right=0;overflow=hidden;pointerEvents=1;labelBackgroundColor=none;fontSize=12;fontStyle=1;fontColor=#FF6666;" parent="_LQmrGl0xkuqNisEkxN3-11" vertex="1">
                    <mxGeometry x="120" width="120" height="20" as="geometry">
                        <mxRectangle width="120" height="20" as="alternateBounds"/>
                    </mxGeometry>
                </mxCell>
                <mxCell id="_LQmrGl0xkuqNisEkxN3-16" style="shape=partialRectangle;html=1;whiteSpace=wrap;collapsible=0;dropTarget=0;pointerEvents=0;fillColor=none;top=0;left=0;bottom=0;right=0;points=[[0,0.5],[1,0.5]];portConstraint=eastwest;labelBackgroundColor=none;fontSize=12;" parent="_LQmrGl0xkuqNisEkxN3-0" vertex="1">
                    <mxGeometry y="80" width="240" height="20" as="geometry"/>
                </mxCell>
                <mxCell id="_LQmrGl0xkuqNisEkxN3-17" value="3" style="shape=partialRectangle;html=1;whiteSpace=wrap;connectable=0;fillColor=none;top=0;left=0;bottom=0;right=0;overflow=hidden;pointerEvents=1;labelBackgroundColor=none;fontSize=12;fontStyle=1;fontColor=#FF6666;" parent="_LQmrGl0xkuqNisEkxN3-16" vertex="1">
                    <mxGeometry width="48" height="20" as="geometry">
                        <mxRectangle width="48" height="20" as="alternateBounds"/>
                    </mxGeometry>
                </mxCell>
                <mxCell id="_LQmrGl0xkuqNisEkxN3-18" value="3" style="shape=partialRectangle;html=1;whiteSpace=wrap;connectable=0;fillColor=none;top=0;left=0;bottom=0;right=0;overflow=hidden;pointerEvents=1;labelBackgroundColor=none;fontSize=12;fontStyle=1;fontColor=#FF6666;" parent="_LQmrGl0xkuqNisEkxN3-16" vertex="1">
                    <mxGeometry x="48" width="33" height="20" as="geometry">
                        <mxRectangle width="33" height="20" as="alternateBounds"/>
                    </mxGeometry>
                </mxCell>
                <mxCell id="_LQmrGl0xkuqNisEkxN3-19" value="3" style="shape=partialRectangle;html=1;whiteSpace=wrap;connectable=0;fillColor=none;top=0;left=0;bottom=0;right=0;overflow=hidden;pointerEvents=1;labelBackgroundColor=none;fontSize=12;fontStyle=1;fontColor=#FF6666;" parent="_LQmrGl0xkuqNisEkxN3-16" vertex="1">
                    <mxGeometry x="81" width="39" height="20" as="geometry">
                        <mxRectangle width="39" height="20" as="alternateBounds"/>
                    </mxGeometry>
                </mxCell>
                <mxCell id="_LQmrGl0xkuqNisEkxN3-20" value="&lt;span&gt;&amp;lt;3,3&amp;gt;&lt;/span&gt;" style="shape=partialRectangle;html=1;whiteSpace=wrap;connectable=0;fillColor=none;top=0;left=0;bottom=0;right=0;overflow=hidden;pointerEvents=1;labelBackgroundColor=none;fontSize=12;fontStyle=1;fontColor=#FF6666;" parent="_LQmrGl0xkuqNisEkxN3-16" vertex="1">
                    <mxGeometry x="120" width="120" height="20" as="geometry">
                        <mxRectangle width="120" height="20" as="alternateBounds"/>
                    </mxGeometry>
                </mxCell>
                <mxCell id="_LQmrGl0xkuqNisEkxN3-21" style="shape=partialRectangle;html=1;whiteSpace=wrap;collapsible=0;dropTarget=0;pointerEvents=0;fillColor=none;top=0;left=0;bottom=0;right=0;points=[[0,0.5],[1,0.5]];portConstraint=eastwest;labelBackgroundColor=none;fontSize=12;" parent="_LQmrGl0xkuqNisEkxN3-0" vertex="1">
                    <mxGeometry y="100" width="240" height="20" as="geometry"/>
                </mxCell>
                <mxCell id="_LQmrGl0xkuqNisEkxN3-22" value="4" style="shape=partialRectangle;html=1;whiteSpace=wrap;connectable=0;fillColor=none;top=0;left=0;bottom=0;right=0;overflow=hidden;pointerEvents=1;labelBackgroundColor=none;fontSize=12;fontStyle=1;fontColor=#FF6666;" parent="_LQmrGl0xkuqNisEkxN3-21" vertex="1">
                    <mxGeometry width="48" height="20" as="geometry">
                        <mxRectangle width="48" height="20" as="alternateBounds"/>
                    </mxGeometry>
                </mxCell>
                <mxCell id="_LQmrGl0xkuqNisEkxN3-23" value="3" style="shape=partialRectangle;html=1;whiteSpace=wrap;connectable=0;fillColor=none;top=0;left=0;bottom=0;right=0;overflow=hidden;pointerEvents=1;labelBackgroundColor=none;fontSize=12;fontStyle=1;fontColor=#FF6666;" parent="_LQmrGl0xkuqNisEkxN3-21" vertex="1">
                    <mxGeometry x="48" width="33" height="20" as="geometry">
                        <mxRectangle width="33" height="20" as="alternateBounds"/>
                    </mxGeometry>
                </mxCell>
                <mxCell id="_LQmrGl0xkuqNisEkxN3-24" value="6" style="shape=partialRectangle;html=1;whiteSpace=wrap;connectable=0;fillColor=none;top=0;left=0;bottom=0;right=0;overflow=hidden;pointerEvents=1;labelBackgroundColor=none;fontSize=12;fontStyle=1;fontColor=#FF6666;" parent="_LQmrGl0xkuqNisEkxN3-21" vertex="1">
                    <mxGeometry x="81" width="39" height="20" as="geometry">
                        <mxRectangle width="39" height="20" as="alternateBounds"/>
                    </mxGeometry>
                </mxCell>
                <mxCell id="_LQmrGl0xkuqNisEkxN3-25" value="&amp;lt;3,6&amp;gt;" style="shape=partialRectangle;html=1;whiteSpace=wrap;connectable=0;fillColor=none;top=0;left=0;bottom=0;right=0;overflow=hidden;pointerEvents=1;labelBackgroundColor=none;fontSize=12;fontStyle=1;fontColor=#FF6666;" parent="_LQmrGl0xkuqNisEkxN3-21" vertex="1">
                    <mxGeometry x="120" width="120" height="20" as="geometry">
                        <mxRectangle width="120" height="20" as="alternateBounds"/>
                    </mxGeometry>
                </mxCell>
                <mxCell id="_LQmrGl0xkuqNisEkxN3-26" style="shape=partialRectangle;html=1;whiteSpace=wrap;collapsible=0;dropTarget=0;pointerEvents=0;fillColor=none;top=0;left=0;bottom=0;right=0;points=[[0,0.5],[1,0.5]];portConstraint=eastwest;labelBackgroundColor=none;fontSize=12;fontStyle=0" parent="_LQmrGl0xkuqNisEkxN3-0" vertex="1">
                    <mxGeometry y="120" width="240" height="20" as="geometry"/>
                </mxCell>
                <mxCell id="_LQmrGl0xkuqNisEkxN3-27" value="5" style="shape=partialRectangle;html=1;whiteSpace=wrap;connectable=0;fillColor=none;top=0;left=0;bottom=0;right=0;overflow=hidden;pointerEvents=1;labelBackgroundColor=none;fontSize=12;fontStyle=0;fontColor=#000000;" parent="_LQmrGl0xkuqNisEkxN3-26" vertex="1">
                    <mxGeometry width="48" height="20" as="geometry">
                        <mxRectangle width="48" height="20" as="alternateBounds"/>
                    </mxGeometry>
                </mxCell>
                <mxCell id="_LQmrGl0xkuqNisEkxN3-28" value="3" style="shape=partialRectangle;html=1;whiteSpace=wrap;connectable=0;fillColor=none;top=0;left=0;bottom=0;right=0;overflow=hidden;pointerEvents=1;labelBackgroundColor=none;fontSize=12;fontStyle=0;fontColor=#000000;" parent="_LQmrGl0xkuqNisEkxN3-26" vertex="1">
                    <mxGeometry x="48" width="33" height="20" as="geometry">
                        <mxRectangle width="33" height="20" as="alternateBounds"/>
                    </mxGeometry>
                </mxCell>
                <mxCell id="_LQmrGl0xkuqNisEkxN3-29" value="6" style="shape=partialRectangle;html=1;whiteSpace=wrap;connectable=0;fillColor=none;top=0;left=0;bottom=0;right=0;overflow=hidden;pointerEvents=1;labelBackgroundColor=none;fontSize=12;fontStyle=0;fontColor=#000000;" parent="_LQmrGl0xkuqNisEkxN3-26" vertex="1">
                    <mxGeometry x="81" width="39" height="20" as="geometry">
                        <mxRectangle width="39" height="20" as="alternateBounds"/>
                    </mxGeometry>
                </mxCell>
                <mxCell id="_LQmrGl0xkuqNisEkxN3-30" value="&amp;lt;3,4,5,6&amp;gt;" style="shape=partialRectangle;html=1;whiteSpace=wrap;connectable=0;fillColor=none;top=0;left=0;bottom=0;right=0;overflow=hidden;pointerEvents=1;labelBackgroundColor=none;fontSize=12;fontStyle=0;fontColor=#000000;" parent="_LQmrGl0xkuqNisEkxN3-26" vertex="1">
                    <mxGeometry x="120" width="120" height="20" as="geometry">
                        <mxRectangle width="120" height="20" as="alternateBounds"/>
                    </mxGeometry>
                </mxCell>
                <mxCell id="_LQmrGl0xkuqNisEkxN3-31" value="secondsToday" style="shape=table;startSize=20;container=1;collapsible=0;childLayout=tableLayout;fontStyle=1;align=center;pointerEvents=1;labelBackgroundColor=none;fontSize=12;fillColor=#647687;fontColor=#ffffff;strokeColor=#314354;" parent="qLEMy5kPpG_fEMa3Z9im-1" vertex="1">
                    <mxGeometry x="300" y="60" width="240" height="60" as="geometry"/>
                </mxCell>
                <mxCell id="_LQmrGl0xkuqNisEkxN3-32" value="" style="shape=partialRectangle;html=1;whiteSpace=wrap;collapsible=0;dropTarget=0;pointerEvents=0;fillColor=none;top=0;left=0;bottom=0;right=0;points=[[0,0.5],[1,0.5]];portConstraint=eastwest;labelBackgroundColor=none;fontSize=12;" parent="_LQmrGl0xkuqNisEkxN3-31" vertex="1">
                    <mxGeometry y="20" width="240" height="20" as="geometry"/>
                </mxCell>
                <mxCell id="_LQmrGl0xkuqNisEkxN3-33" value="Pair id" style="shape=partialRectangle;html=1;whiteSpace=wrap;connectable=0;fillColor=#ffe6cc;top=0;left=0;bottom=0;right=0;overflow=hidden;pointerEvents=1;labelBackgroundColor=none;fontSize=12;strokeColor=#000000;fontStyle=1;strokeWidth=1;" parent="_LQmrGl0xkuqNisEkxN3-32" vertex="1">
                    <mxGeometry width="48" height="20" as="geometry">
                        <mxRectangle width="48" height="20" as="alternateBounds"/>
                    </mxGeometry>
                </mxCell>
                <mxCell id="_LQmrGl0xkuqNisEkxN3-34" value="def" style="shape=partialRectangle;html=1;whiteSpace=wrap;connectable=0;fillColor=#ffe6cc;top=0;left=0;bottom=0;right=0;overflow=hidden;pointerEvents=1;labelBackgroundColor=none;fontSize=12;strokeColor=#000000;fontStyle=1;strokeWidth=1;" parent="_LQmrGl0xkuqNisEkxN3-32" vertex="1">
                    <mxGeometry x="48" width="33" height="20" as="geometry">
                        <mxRectangle width="33" height="20" as="alternateBounds"/>
                    </mxGeometry>
                </mxCell>
                <mxCell id="_LQmrGl0xkuqNisEkxN3-35" value="use" style="shape=partialRectangle;html=1;whiteSpace=wrap;connectable=0;fillColor=#ffe6cc;top=0;left=0;bottom=0;right=0;overflow=hidden;pointerEvents=1;labelBackgroundColor=none;fontSize=12;strokeColor=#000000;fontStyle=1;strokeWidth=1;" parent="_LQmrGl0xkuqNisEkxN3-32" vertex="1">
                    <mxGeometry x="81" width="39" height="20" as="geometry">
                        <mxRectangle width="39" height="20" as="alternateBounds"/>
                    </mxGeometry>
                </mxCell>
                <mxCell id="_LQmrGl0xkuqNisEkxN3-36" value="path" style="shape=partialRectangle;html=1;whiteSpace=wrap;connectable=0;fillColor=#ffe6cc;top=0;left=0;bottom=0;right=0;overflow=hidden;pointerEvents=1;labelBackgroundColor=none;fontSize=12;strokeColor=#000000;fontStyle=1;strokeWidth=1;" parent="_LQmrGl0xkuqNisEkxN3-32" vertex="1">
                    <mxGeometry x="120" width="120" height="20" as="geometry">
                        <mxRectangle width="120" height="20" as="alternateBounds"/>
                    </mxGeometry>
                </mxCell>
                <mxCell id="_LQmrGl0xkuqNisEkxN3-37" value="" style="shape=partialRectangle;html=1;whiteSpace=wrap;collapsible=0;dropTarget=0;pointerEvents=0;fillColor=none;top=0;left=0;bottom=0;right=0;points=[[0,0.5],[1,0.5]];portConstraint=eastwest;labelBackgroundColor=none;fontSize=12;" parent="_LQmrGl0xkuqNisEkxN3-31" vertex="1">
                    <mxGeometry y="40" width="240" height="20" as="geometry"/>
                </mxCell>
                <mxCell id="_LQmrGl0xkuqNisEkxN3-38" value="1" style="shape=partialRectangle;html=1;whiteSpace=wrap;connectable=0;fillColor=none;top=0;left=0;bottom=0;right=0;overflow=hidden;pointerEvents=1;labelBackgroundColor=none;fontSize=12;fontStyle=1;fontColor=#FF6666;" parent="_LQmrGl0xkuqNisEkxN3-37" vertex="1">
                    <mxGeometry width="48" height="20" as="geometry">
                        <mxRectangle width="48" height="20" as="alternateBounds"/>
                    </mxGeometry>
                </mxCell>
                <mxCell id="_LQmrGl0xkuqNisEkxN3-39" value="0" style="shape=partialRectangle;html=1;whiteSpace=wrap;connectable=0;fillColor=none;top=0;left=0;bottom=0;right=0;overflow=hidden;pointerEvents=1;labelBackgroundColor=none;fontSize=12;fontStyle=1;fontColor=#FF6666;" parent="_LQmrGl0xkuqNisEkxN3-37" vertex="1">
                    <mxGeometry x="48" width="33" height="20" as="geometry">
                        <mxRectangle width="33" height="20" as="alternateBounds"/>
                    </mxGeometry>
                </mxCell>
                <mxCell id="_LQmrGl0xkuqNisEkxN3-40" value="1" style="shape=partialRectangle;html=1;whiteSpace=wrap;connectable=0;fillColor=none;top=0;left=0;bottom=0;right=0;overflow=hidden;pointerEvents=1;labelBackgroundColor=none;fontSize=12;fontStyle=1;fontColor=#FF6666;" parent="_LQmrGl0xkuqNisEkxN3-37" vertex="1">
                    <mxGeometry x="81" width="39" height="20" as="geometry">
                        <mxRectangle width="39" height="20" as="alternateBounds"/>
                    </mxGeometry>
                </mxCell>
                <mxCell id="_LQmrGl0xkuqNisEkxN3-41" value="&amp;lt;0,1&amp;gt;" style="shape=partialRectangle;html=1;whiteSpace=wrap;connectable=0;fillColor=none;top=0;left=0;bottom=0;right=0;overflow=hidden;pointerEvents=1;labelBackgroundColor=none;fontSize=12;fontStyle=1;fontColor=#FF6666;" parent="_LQmrGl0xkuqNisEkxN3-37" vertex="1">
                    <mxGeometry x="120" width="120" height="20" as="geometry">
                        <mxRectangle width="120" height="20" as="alternateBounds"/>
                    </mxGeometry>
                </mxCell>
                <mxCell id="_LQmrGl0xkuqNisEkxN3-42" value="e" style="shape=table;startSize=20;container=1;collapsible=0;childLayout=tableLayout;fontStyle=1;align=center;pointerEvents=1;labelBackgroundColor=none;fontSize=12;fillColor=#647687;fontColor=#ffffff;strokeColor=#314354;" parent="qLEMy5kPpG_fEMa3Z9im-1" vertex="1">
                    <mxGeometry x="560" y="60" width="240" height="60" as="geometry"/>
                </mxCell>
                <mxCell id="_LQmrGl0xkuqNisEkxN3-43" value="" style="shape=partialRectangle;html=1;whiteSpace=wrap;collapsible=0;dropTarget=0;pointerEvents=0;fillColor=none;top=0;left=0;bottom=0;right=0;points=[[0,0.5],[1,0.5]];portConstraint=eastwest;labelBackgroundColor=none;fontSize=12;" parent="_LQmrGl0xkuqNisEkxN3-42" vertex="1">
                    <mxGeometry y="20" width="240" height="20" as="geometry"/>
                </mxCell>
                <mxCell id="_LQmrGl0xkuqNisEkxN3-44" value="Pair id" style="shape=partialRectangle;html=1;whiteSpace=wrap;connectable=0;fillColor=#ffe6cc;top=0;left=0;bottom=0;right=0;overflow=hidden;pointerEvents=1;labelBackgroundColor=none;fontSize=12;strokeColor=#000000;fontStyle=1;strokeWidth=1;" parent="_LQmrGl0xkuqNisEkxN3-43" vertex="1">
                    <mxGeometry width="48" height="20" as="geometry">
                        <mxRectangle width="48" height="20" as="alternateBounds"/>
                    </mxGeometry>
                </mxCell>
                <mxCell id="_LQmrGl0xkuqNisEkxN3-45" value="def" style="shape=partialRectangle;html=1;whiteSpace=wrap;connectable=0;fillColor=#ffe6cc;top=0;left=0;bottom=0;right=0;overflow=hidden;pointerEvents=1;labelBackgroundColor=none;fontSize=12;strokeColor=#000000;fontStyle=1;strokeWidth=1;" parent="_LQmrGl0xkuqNisEkxN3-43" vertex="1">
                    <mxGeometry x="48" width="33" height="20" as="geometry">
                        <mxRectangle width="33" height="20" as="alternateBounds"/>
                    </mxGeometry>
                </mxCell>
                <mxCell id="_LQmrGl0xkuqNisEkxN3-46" value="use" style="shape=partialRectangle;html=1;whiteSpace=wrap;connectable=0;fillColor=#ffe6cc;top=0;left=0;bottom=0;right=0;overflow=hidden;pointerEvents=1;labelBackgroundColor=none;fontSize=12;strokeColor=#000000;fontStyle=1;strokeWidth=1;" parent="_LQmrGl0xkuqNisEkxN3-43" vertex="1">
                    <mxGeometry x="81" width="39" height="20" as="geometry">
                        <mxRectangle width="39" height="20" as="alternateBounds"/>
                    </mxGeometry>
                </mxCell>
                <mxCell id="_LQmrGl0xkuqNisEkxN3-47" value="path" style="shape=partialRectangle;html=1;whiteSpace=wrap;connectable=0;fillColor=#ffe6cc;top=0;left=0;bottom=0;right=0;overflow=hidden;pointerEvents=1;labelBackgroundColor=none;fontSize=12;strokeColor=#000000;fontStyle=1;strokeWidth=1;" parent="_LQmrGl0xkuqNisEkxN3-43" vertex="1">
                    <mxGeometry x="120" width="120" height="20" as="geometry">
                        <mxRectangle width="120" height="20" as="alternateBounds"/>
                    </mxGeometry>
                </mxCell>
                <mxCell id="_LQmrGl0xkuqNisEkxN3-48" value="" style="shape=partialRectangle;html=1;whiteSpace=wrap;collapsible=0;dropTarget=0;pointerEvents=0;fillColor=none;top=0;left=0;bottom=0;right=0;points=[[0,0.5],[1,0.5]];portConstraint=eastwest;labelBackgroundColor=none;fontSize=12;" parent="_LQmrGl0xkuqNisEkxN3-42" vertex="1">
                    <mxGeometry y="40" width="240" height="20" as="geometry"/>
                </mxCell>
                <mxCell id="_LQmrGl0xkuqNisEkxN3-49" value="1" style="shape=partialRectangle;html=1;whiteSpace=wrap;connectable=0;fillColor=none;top=0;left=0;bottom=0;right=0;overflow=hidden;pointerEvents=1;labelBackgroundColor=none;fontSize=12;fontStyle=1;fontColor=#FF6666;" parent="_LQmrGl0xkuqNisEkxN3-48" vertex="1">
                    <mxGeometry width="48" height="20" as="geometry">
                        <mxRectangle width="48" height="20" as="alternateBounds"/>
                    </mxGeometry>
                </mxCell>
                <mxCell id="_LQmrGl0xkuqNisEkxN3-50" value="4" style="shape=partialRectangle;html=1;whiteSpace=wrap;connectable=0;fillColor=none;top=0;left=0;bottom=0;right=0;overflow=hidden;pointerEvents=1;labelBackgroundColor=none;fontSize=12;fontStyle=1;fontColor=#FF6666;" parent="_LQmrGl0xkuqNisEkxN3-48" vertex="1">
                    <mxGeometry x="48" width="33" height="20" as="geometry">
                        <mxRectangle width="33" height="20" as="alternateBounds"/>
                    </mxGeometry>
                </mxCell>
                <mxCell id="_LQmrGl0xkuqNisEkxN3-51" value="5" style="shape=partialRectangle;html=1;whiteSpace=wrap;connectable=0;fillColor=none;top=0;left=0;bottom=0;right=0;overflow=hidden;pointerEvents=1;labelBackgroundColor=none;fontSize=12;fontStyle=1;fontColor=#FF6666;" parent="_LQmrGl0xkuqNisEkxN3-48" vertex="1">
                    <mxGeometry x="81" width="39" height="20" as="geometry">
                        <mxRectangle width="39" height="20" as="alternateBounds"/>
                    </mxGeometry>
                </mxCell>
                <mxCell id="_LQmrGl0xkuqNisEkxN3-52" value="&amp;lt;4,5&amp;gt;" style="shape=partialRectangle;html=1;whiteSpace=wrap;connectable=0;fillColor=none;top=0;left=0;bottom=0;right=0;overflow=hidden;pointerEvents=1;labelBackgroundColor=none;fontSize=12;fontStyle=1;fontColor=#FF6666;" parent="_LQmrGl0xkuqNisEkxN3-48" vertex="1">
                    <mxGeometry x="120" width="120" height="20" as="geometry">
                        <mxRectangle width="120" height="20" as="alternateBounds"/>
                    </mxGeometry>
                </mxCell>
            </root>
        </mxGraphModel>
    </diagram>
    <diagram id="gEL4VtpedVdXx-h_IKRa" name="All-p-uses">
        <mxGraphModel dx="933" dy="606" grid="0" gridSize="10" guides="1" tooltips="1" connect="1" arrows="1" fold="1" page="1" pageScale="1" pageWidth="850" pageHeight="1100" math="0" shadow="0">
            <root>
                <mxCell id="6vRWnQa7thK6jOKQXYEz-0"/>
                <mxCell id="6vRWnQa7thK6jOKQXYEz-1" parent="6vRWnQa7thK6jOKQXYEz-0"/>
                <mxCell id="4Lb5lxFpENudXAg01q-O-0" value="seconds" style="shape=table;startSize=20;container=1;collapsible=0;childLayout=tableLayout;fontStyle=1;align=center;pointerEvents=1;labelBackgroundColor=none;fontSize=12;fillColor=#647687;fontColor=#ffffff;strokeColor=#314354;" parent="6vRWnQa7thK6jOKQXYEz-1" vertex="1">
                    <mxGeometry x="45" y="60" width="240" height="140" as="geometry"/>
                </mxCell>
                <mxCell id="4Lb5lxFpENudXAg01q-O-1" value="" style="shape=partialRectangle;html=1;whiteSpace=wrap;collapsible=0;dropTarget=0;pointerEvents=0;fillColor=none;top=0;left=0;bottom=0;right=0;points=[[0,0.5],[1,0.5]];portConstraint=eastwest;labelBackgroundColor=none;fontSize=12;" parent="4Lb5lxFpENudXAg01q-O-0" vertex="1">
                    <mxGeometry y="20" width="240" height="20" as="geometry"/>
                </mxCell>
                <mxCell id="4Lb5lxFpENudXAg01q-O-2" value="Pair id" style="shape=partialRectangle;html=1;whiteSpace=wrap;connectable=0;fillColor=#ffe6cc;top=0;left=0;bottom=0;right=0;overflow=hidden;pointerEvents=1;labelBackgroundColor=none;fontSize=12;strokeColor=#000000;fontStyle=1;strokeWidth=1;" parent="4Lb5lxFpENudXAg01q-O-1" vertex="1">
                    <mxGeometry width="48" height="20" as="geometry">
                        <mxRectangle width="48" height="20" as="alternateBounds"/>
                    </mxGeometry>
                </mxCell>
                <mxCell id="4Lb5lxFpENudXAg01q-O-3" value="def" style="shape=partialRectangle;html=1;whiteSpace=wrap;connectable=0;fillColor=#ffe6cc;top=0;left=0;bottom=0;right=0;overflow=hidden;pointerEvents=1;labelBackgroundColor=none;fontSize=12;strokeColor=#000000;fontStyle=1;strokeWidth=1;" parent="4Lb5lxFpENudXAg01q-O-1" vertex="1">
                    <mxGeometry x="48" width="33" height="20" as="geometry">
                        <mxRectangle width="33" height="20" as="alternateBounds"/>
                    </mxGeometry>
                </mxCell>
                <mxCell id="4Lb5lxFpENudXAg01q-O-4" value="use" style="shape=partialRectangle;html=1;whiteSpace=wrap;connectable=0;fillColor=#ffe6cc;top=0;left=0;bottom=0;right=0;overflow=hidden;pointerEvents=1;labelBackgroundColor=none;fontSize=12;strokeColor=#000000;fontStyle=1;strokeWidth=1;" parent="4Lb5lxFpENudXAg01q-O-1" vertex="1">
                    <mxGeometry x="81" width="39" height="20" as="geometry">
                        <mxRectangle width="39" height="20" as="alternateBounds"/>
                    </mxGeometry>
                </mxCell>
                <mxCell id="4Lb5lxFpENudXAg01q-O-5" value="path" style="shape=partialRectangle;html=1;whiteSpace=wrap;connectable=0;fillColor=#ffe6cc;top=0;left=0;bottom=0;right=0;overflow=hidden;pointerEvents=1;labelBackgroundColor=none;fontSize=12;strokeColor=#000000;fontStyle=1;strokeWidth=1;" parent="4Lb5lxFpENudXAg01q-O-1" vertex="1">
                    <mxGeometry x="120" width="120" height="20" as="geometry">
                        <mxRectangle width="120" height="20" as="alternateBounds"/>
                    </mxGeometry>
                </mxCell>
                <mxCell id="4Lb5lxFpENudXAg01q-O-6" value="" style="shape=partialRectangle;html=1;whiteSpace=wrap;collapsible=0;dropTarget=0;pointerEvents=0;fillColor=none;top=0;left=0;bottom=0;right=0;points=[[0,0.5],[1,0.5]];portConstraint=eastwest;labelBackgroundColor=none;fontSize=12;" parent="4Lb5lxFpENudXAg01q-O-0" vertex="1">
                    <mxGeometry y="40" width="240" height="20" as="geometry"/>
                </mxCell>
                <mxCell id="4Lb5lxFpENudXAg01q-O-7" value="1" style="shape=partialRectangle;html=1;whiteSpace=wrap;connectable=0;fillColor=none;top=0;left=0;bottom=0;right=0;overflow=hidden;pointerEvents=1;labelBackgroundColor=none;fontSize=12;" parent="4Lb5lxFpENudXAg01q-O-6" vertex="1">
                    <mxGeometry width="48" height="20" as="geometry">
                        <mxRectangle width="48" height="20" as="alternateBounds"/>
                    </mxGeometry>
                </mxCell>
                <mxCell id="4Lb5lxFpENudXAg01q-O-8" value="1" style="shape=partialRectangle;html=1;whiteSpace=wrap;connectable=0;fillColor=none;top=0;left=0;bottom=0;right=0;overflow=hidden;pointerEvents=1;labelBackgroundColor=none;fontSize=12;" parent="4Lb5lxFpENudXAg01q-O-6" vertex="1">
                    <mxGeometry x="48" width="33" height="20" as="geometry">
                        <mxRectangle width="33" height="20" as="alternateBounds"/>
                    </mxGeometry>
                </mxCell>
                <mxCell id="4Lb5lxFpENudXAg01q-O-9" value="3" style="shape=partialRectangle;html=1;whiteSpace=wrap;connectable=0;fillColor=none;top=0;left=0;bottom=0;right=0;overflow=hidden;pointerEvents=1;labelBackgroundColor=none;fontSize=12;" parent="4Lb5lxFpENudXAg01q-O-6" vertex="1">
                    <mxGeometry x="81" width="39" height="20" as="geometry">
                        <mxRectangle width="39" height="20" as="alternateBounds"/>
                    </mxGeometry>
                </mxCell>
                <mxCell id="4Lb5lxFpENudXAg01q-O-10" value="&amp;lt;1,2,3&amp;gt;" style="shape=partialRectangle;html=1;whiteSpace=wrap;connectable=0;fillColor=none;top=0;left=0;bottom=0;right=0;overflow=hidden;pointerEvents=1;labelBackgroundColor=none;fontSize=12;" parent="4Lb5lxFpENudXAg01q-O-6" vertex="1">
                    <mxGeometry x="120" width="120" height="20" as="geometry">
                        <mxRectangle width="120" height="20" as="alternateBounds"/>
                    </mxGeometry>
                </mxCell>
                <mxCell id="4Lb5lxFpENudXAg01q-O-11" style="shape=partialRectangle;html=1;whiteSpace=wrap;collapsible=0;dropTarget=0;pointerEvents=0;fillColor=none;top=0;left=0;bottom=0;right=0;points=[[0,0.5],[1,0.5]];portConstraint=eastwest;labelBackgroundColor=none;fontSize=12;" parent="4Lb5lxFpENudXAg01q-O-0" vertex="1">
                    <mxGeometry y="60" width="240" height="20" as="geometry"/>
                </mxCell>
                <mxCell id="4Lb5lxFpENudXAg01q-O-12" value="2" style="shape=partialRectangle;html=1;whiteSpace=wrap;connectable=0;fillColor=none;top=0;left=0;bottom=0;right=0;overflow=hidden;pointerEvents=1;labelBackgroundColor=none;fontSize=12;" parent="4Lb5lxFpENudXAg01q-O-11" vertex="1">
                    <mxGeometry width="48" height="20" as="geometry">
                        <mxRectangle width="48" height="20" as="alternateBounds"/>
                    </mxGeometry>
                </mxCell>
                <mxCell id="4Lb5lxFpENudXAg01q-O-13" value="1" style="shape=partialRectangle;html=1;whiteSpace=wrap;connectable=0;fillColor=none;top=0;left=0;bottom=0;right=0;overflow=hidden;pointerEvents=1;labelBackgroundColor=none;fontSize=12;" parent="4Lb5lxFpENudXAg01q-O-11" vertex="1">
                    <mxGeometry x="48" width="33" height="20" as="geometry">
                        <mxRectangle width="33" height="20" as="alternateBounds"/>
                    </mxGeometry>
                </mxCell>
                <mxCell id="4Lb5lxFpENudXAg01q-O-14" value="6" style="shape=partialRectangle;html=1;whiteSpace=wrap;connectable=0;fillColor=none;top=0;left=0;bottom=0;right=0;overflow=hidden;pointerEvents=1;labelBackgroundColor=none;fontSize=12;" parent="4Lb5lxFpENudXAg01q-O-11" vertex="1">
                    <mxGeometry x="81" width="39" height="20" as="geometry">
                        <mxRectangle width="39" height="20" as="alternateBounds"/>
                    </mxGeometry>
                </mxCell>
                <mxCell id="4Lb5lxFpENudXAg01q-O-15" value="&amp;lt;1,2,6&amp;gt;" style="shape=partialRectangle;html=1;whiteSpace=wrap;connectable=0;fillColor=none;top=0;left=0;bottom=0;right=0;overflow=hidden;pointerEvents=1;labelBackgroundColor=none;fontSize=12;" parent="4Lb5lxFpENudXAg01q-O-11" vertex="1">
                    <mxGeometry x="120" width="120" height="20" as="geometry">
                        <mxRectangle width="120" height="20" as="alternateBounds"/>
                    </mxGeometry>
                </mxCell>
                <mxCell id="4Lb5lxFpENudXAg01q-O-16" style="shape=partialRectangle;html=1;whiteSpace=wrap;collapsible=0;dropTarget=0;pointerEvents=0;fillColor=none;top=0;left=0;bottom=0;right=0;points=[[0,0.5],[1,0.5]];portConstraint=eastwest;labelBackgroundColor=none;fontSize=12;" parent="4Lb5lxFpENudXAg01q-O-0" vertex="1">
                    <mxGeometry y="80" width="240" height="20" as="geometry"/>
                </mxCell>
                <mxCell id="4Lb5lxFpENudXAg01q-O-17" value="3" style="shape=partialRectangle;html=1;whiteSpace=wrap;connectable=0;fillColor=none;top=0;left=0;bottom=0;right=0;overflow=hidden;pointerEvents=1;labelBackgroundColor=none;fontSize=12;" parent="4Lb5lxFpENudXAg01q-O-16" vertex="1">
                    <mxGeometry width="48" height="20" as="geometry">
                        <mxRectangle width="48" height="20" as="alternateBounds"/>
                    </mxGeometry>
                </mxCell>
                <mxCell id="4Lb5lxFpENudXAg01q-O-18" value="3" style="shape=partialRectangle;html=1;whiteSpace=wrap;connectable=0;fillColor=none;top=0;left=0;bottom=0;right=0;overflow=hidden;pointerEvents=1;labelBackgroundColor=none;fontSize=12;" parent="4Lb5lxFpENudXAg01q-O-16" vertex="1">
                    <mxGeometry x="48" width="33" height="20" as="geometry">
                        <mxRectangle width="33" height="20" as="alternateBounds"/>
                    </mxGeometry>
                </mxCell>
                <mxCell id="4Lb5lxFpENudXAg01q-O-19" value="3" style="shape=partialRectangle;html=1;whiteSpace=wrap;connectable=0;fillColor=none;top=0;left=0;bottom=0;right=0;overflow=hidden;pointerEvents=1;labelBackgroundColor=none;fontSize=12;" parent="4Lb5lxFpENudXAg01q-O-16" vertex="1">
                    <mxGeometry x="81" width="39" height="20" as="geometry">
                        <mxRectangle width="39" height="20" as="alternateBounds"/>
                    </mxGeometry>
                </mxCell>
                <mxCell id="4Lb5lxFpENudXAg01q-O-20" value="&lt;span&gt;&amp;lt;3,3&amp;gt;&lt;/span&gt;" style="shape=partialRectangle;html=1;whiteSpace=wrap;connectable=0;fillColor=none;top=0;left=0;bottom=0;right=0;overflow=hidden;pointerEvents=1;labelBackgroundColor=none;fontSize=12;" parent="4Lb5lxFpENudXAg01q-O-16" vertex="1">
                    <mxGeometry x="120" width="120" height="20" as="geometry">
                        <mxRectangle width="120" height="20" as="alternateBounds"/>
                    </mxGeometry>
                </mxCell>
                <mxCell id="4Lb5lxFpENudXAg01q-O-21" style="shape=partialRectangle;html=1;whiteSpace=wrap;collapsible=0;dropTarget=0;pointerEvents=0;fillColor=none;top=0;left=0;bottom=0;right=0;points=[[0,0.5],[1,0.5]];portConstraint=eastwest;labelBackgroundColor=none;fontSize=12;" parent="4Lb5lxFpENudXAg01q-O-0" vertex="1">
                    <mxGeometry y="100" width="240" height="20" as="geometry"/>
                </mxCell>
                <mxCell id="4Lb5lxFpENudXAg01q-O-22" value="4" style="shape=partialRectangle;html=1;whiteSpace=wrap;connectable=0;fillColor=none;top=0;left=0;bottom=0;right=0;overflow=hidden;pointerEvents=1;labelBackgroundColor=none;fontSize=12;" parent="4Lb5lxFpENudXAg01q-O-21" vertex="1">
                    <mxGeometry width="48" height="20" as="geometry">
                        <mxRectangle width="48" height="20" as="alternateBounds"/>
                    </mxGeometry>
                </mxCell>
                <mxCell id="4Lb5lxFpENudXAg01q-O-23" value="3" style="shape=partialRectangle;html=1;whiteSpace=wrap;connectable=0;fillColor=none;top=0;left=0;bottom=0;right=0;overflow=hidden;pointerEvents=1;labelBackgroundColor=none;fontSize=12;" parent="4Lb5lxFpENudXAg01q-O-21" vertex="1">
                    <mxGeometry x="48" width="33" height="20" as="geometry">
                        <mxRectangle width="33" height="20" as="alternateBounds"/>
                    </mxGeometry>
                </mxCell>
                <mxCell id="4Lb5lxFpENudXAg01q-O-24" value="6" style="shape=partialRectangle;html=1;whiteSpace=wrap;connectable=0;fillColor=none;top=0;left=0;bottom=0;right=0;overflow=hidden;pointerEvents=1;labelBackgroundColor=none;fontSize=12;" parent="4Lb5lxFpENudXAg01q-O-21" vertex="1">
                    <mxGeometry x="81" width="39" height="20" as="geometry">
                        <mxRectangle width="39" height="20" as="alternateBounds"/>
                    </mxGeometry>
                </mxCell>
                <mxCell id="4Lb5lxFpENudXAg01q-O-25" value="&amp;lt;3,6&amp;gt;" style="shape=partialRectangle;html=1;whiteSpace=wrap;connectable=0;fillColor=none;top=0;left=0;bottom=0;right=0;overflow=hidden;pointerEvents=1;labelBackgroundColor=none;fontSize=12;" parent="4Lb5lxFpENudXAg01q-O-21" vertex="1">
                    <mxGeometry x="120" width="120" height="20" as="geometry">
                        <mxRectangle width="120" height="20" as="alternateBounds"/>
                    </mxGeometry>
                </mxCell>
                <mxCell id="4Lb5lxFpENudXAg01q-O-26" style="shape=partialRectangle;html=1;whiteSpace=wrap;collapsible=0;dropTarget=0;pointerEvents=0;fillColor=none;top=0;left=0;bottom=0;right=0;points=[[0,0.5],[1,0.5]];portConstraint=eastwest;labelBackgroundColor=none;fontSize=12;" parent="4Lb5lxFpENudXAg01q-O-0" vertex="1">
                    <mxGeometry y="120" width="240" height="20" as="geometry"/>
                </mxCell>
                <mxCell id="4Lb5lxFpENudXAg01q-O-27" value="5" style="shape=partialRectangle;html=1;whiteSpace=wrap;connectable=0;fillColor=none;top=0;left=0;bottom=0;right=0;overflow=hidden;pointerEvents=1;labelBackgroundColor=none;fontSize=12;" parent="4Lb5lxFpENudXAg01q-O-26" vertex="1">
                    <mxGeometry width="48" height="20" as="geometry">
                        <mxRectangle width="48" height="20" as="alternateBounds"/>
                    </mxGeometry>
                </mxCell>
                <mxCell id="4Lb5lxFpENudXAg01q-O-28" value="3" style="shape=partialRectangle;html=1;whiteSpace=wrap;connectable=0;fillColor=none;top=0;left=0;bottom=0;right=0;overflow=hidden;pointerEvents=1;labelBackgroundColor=none;fontSize=12;" parent="4Lb5lxFpENudXAg01q-O-26" vertex="1">
                    <mxGeometry x="48" width="33" height="20" as="geometry">
                        <mxRectangle width="33" height="20" as="alternateBounds"/>
                    </mxGeometry>
                </mxCell>
                <mxCell id="4Lb5lxFpENudXAg01q-O-29" value="6" style="shape=partialRectangle;html=1;whiteSpace=wrap;connectable=0;fillColor=none;top=0;left=0;bottom=0;right=0;overflow=hidden;pointerEvents=1;labelBackgroundColor=none;fontSize=12;" parent="4Lb5lxFpENudXAg01q-O-26" vertex="1">
                    <mxGeometry x="81" width="39" height="20" as="geometry">
                        <mxRectangle width="39" height="20" as="alternateBounds"/>
                    </mxGeometry>
                </mxCell>
                <mxCell id="4Lb5lxFpENudXAg01q-O-30" value="&amp;lt;3,4,5,6&amp;gt;" style="shape=partialRectangle;html=1;whiteSpace=wrap;connectable=0;fillColor=none;top=0;left=0;bottom=0;right=0;overflow=hidden;pointerEvents=1;labelBackgroundColor=none;fontSize=12;" parent="4Lb5lxFpENudXAg01q-O-26" vertex="1">
                    <mxGeometry x="120" width="120" height="20" as="geometry">
                        <mxRectangle width="120" height="20" as="alternateBounds"/>
                    </mxGeometry>
                </mxCell>
                <mxCell id="4Lb5lxFpENudXAg01q-O-31" value="secondsToday" style="shape=table;startSize=20;container=1;collapsible=0;childLayout=tableLayout;fontStyle=1;align=center;pointerEvents=1;labelBackgroundColor=none;fontSize=12;fillColor=#647687;fontColor=#ffffff;strokeColor=#314354;" parent="6vRWnQa7thK6jOKQXYEz-1" vertex="1">
                    <mxGeometry x="300" y="60" width="240" height="60" as="geometry"/>
                </mxCell>
                <mxCell id="4Lb5lxFpENudXAg01q-O-32" value="" style="shape=partialRectangle;html=1;whiteSpace=wrap;collapsible=0;dropTarget=0;pointerEvents=0;fillColor=none;top=0;left=0;bottom=0;right=0;points=[[0,0.5],[1,0.5]];portConstraint=eastwest;labelBackgroundColor=none;fontSize=12;" parent="4Lb5lxFpENudXAg01q-O-31" vertex="1">
                    <mxGeometry y="20" width="240" height="20" as="geometry"/>
                </mxCell>
                <mxCell id="4Lb5lxFpENudXAg01q-O-33" value="Pair id" style="shape=partialRectangle;html=1;whiteSpace=wrap;connectable=0;fillColor=#ffe6cc;top=0;left=0;bottom=0;right=0;overflow=hidden;pointerEvents=1;labelBackgroundColor=none;fontSize=12;strokeColor=#000000;fontStyle=1;strokeWidth=1;" parent="4Lb5lxFpENudXAg01q-O-32" vertex="1">
                    <mxGeometry width="48" height="20" as="geometry">
                        <mxRectangle width="48" height="20" as="alternateBounds"/>
                    </mxGeometry>
                </mxCell>
                <mxCell id="4Lb5lxFpENudXAg01q-O-34" value="def" style="shape=partialRectangle;html=1;whiteSpace=wrap;connectable=0;fillColor=#ffe6cc;top=0;left=0;bottom=0;right=0;overflow=hidden;pointerEvents=1;labelBackgroundColor=none;fontSize=12;strokeColor=#000000;fontStyle=1;strokeWidth=1;" parent="4Lb5lxFpENudXAg01q-O-32" vertex="1">
                    <mxGeometry x="48" width="33" height="20" as="geometry">
                        <mxRectangle width="33" height="20" as="alternateBounds"/>
                    </mxGeometry>
                </mxCell>
                <mxCell id="4Lb5lxFpENudXAg01q-O-35" value="use" style="shape=partialRectangle;html=1;whiteSpace=wrap;connectable=0;fillColor=#ffe6cc;top=0;left=0;bottom=0;right=0;overflow=hidden;pointerEvents=1;labelBackgroundColor=none;fontSize=12;strokeColor=#000000;fontStyle=1;strokeWidth=1;" parent="4Lb5lxFpENudXAg01q-O-32" vertex="1">
                    <mxGeometry x="81" width="39" height="20" as="geometry">
                        <mxRectangle width="39" height="20" as="alternateBounds"/>
                    </mxGeometry>
                </mxCell>
                <mxCell id="4Lb5lxFpENudXAg01q-O-36" value="path" style="shape=partialRectangle;html=1;whiteSpace=wrap;connectable=0;fillColor=#ffe6cc;top=0;left=0;bottom=0;right=0;overflow=hidden;pointerEvents=1;labelBackgroundColor=none;fontSize=12;strokeColor=#000000;fontStyle=1;strokeWidth=1;" parent="4Lb5lxFpENudXAg01q-O-32" vertex="1">
                    <mxGeometry x="120" width="120" height="20" as="geometry">
                        <mxRectangle width="120" height="20" as="alternateBounds"/>
                    </mxGeometry>
                </mxCell>
                <mxCell id="4Lb5lxFpENudXAg01q-O-37" value="" style="shape=partialRectangle;html=1;whiteSpace=wrap;collapsible=0;dropTarget=0;pointerEvents=0;fillColor=none;top=0;left=0;bottom=0;right=0;points=[[0,0.5],[1,0.5]];portConstraint=eastwest;labelBackgroundColor=none;fontSize=12;" parent="4Lb5lxFpENudXAg01q-O-31" vertex="1">
                    <mxGeometry y="40" width="240" height="20" as="geometry"/>
                </mxCell>
                <mxCell id="4Lb5lxFpENudXAg01q-O-38" value="1" style="shape=partialRectangle;html=1;whiteSpace=wrap;connectable=0;fillColor=none;top=0;left=0;bottom=0;right=0;overflow=hidden;pointerEvents=1;labelBackgroundColor=none;fontSize=12;" parent="4Lb5lxFpENudXAg01q-O-37" vertex="1">
                    <mxGeometry width="48" height="20" as="geometry">
                        <mxRectangle width="48" height="20" as="alternateBounds"/>
                    </mxGeometry>
                </mxCell>
                <mxCell id="4Lb5lxFpENudXAg01q-O-39" value="0" style="shape=partialRectangle;html=1;whiteSpace=wrap;connectable=0;fillColor=none;top=0;left=0;bottom=0;right=0;overflow=hidden;pointerEvents=1;labelBackgroundColor=none;fontSize=12;" parent="4Lb5lxFpENudXAg01q-O-37" vertex="1">
                    <mxGeometry x="48" width="33" height="20" as="geometry">
                        <mxRectangle width="33" height="20" as="alternateBounds"/>
                    </mxGeometry>
                </mxCell>
                <mxCell id="4Lb5lxFpENudXAg01q-O-40" value="1" style="shape=partialRectangle;html=1;whiteSpace=wrap;connectable=0;fillColor=none;top=0;left=0;bottom=0;right=0;overflow=hidden;pointerEvents=1;labelBackgroundColor=none;fontSize=12;" parent="4Lb5lxFpENudXAg01q-O-37" vertex="1">
                    <mxGeometry x="81" width="39" height="20" as="geometry">
                        <mxRectangle width="39" height="20" as="alternateBounds"/>
                    </mxGeometry>
                </mxCell>
                <mxCell id="4Lb5lxFpENudXAg01q-O-41" value="&amp;lt;0,1&amp;gt;" style="shape=partialRectangle;html=1;whiteSpace=wrap;connectable=0;fillColor=none;top=0;left=0;bottom=0;right=0;overflow=hidden;pointerEvents=1;labelBackgroundColor=none;fontSize=12;" parent="4Lb5lxFpENudXAg01q-O-37" vertex="1">
                    <mxGeometry x="120" width="120" height="20" as="geometry">
                        <mxRectangle width="120" height="20" as="alternateBounds"/>
                    </mxGeometry>
                </mxCell>
                <mxCell id="4Lb5lxFpENudXAg01q-O-42" value="e" style="shape=table;startSize=20;container=1;collapsible=0;childLayout=tableLayout;fontStyle=1;align=center;pointerEvents=1;labelBackgroundColor=none;fontSize=12;fillColor=#647687;fontColor=#ffffff;strokeColor=#314354;" parent="6vRWnQa7thK6jOKQXYEz-1" vertex="1">
                    <mxGeometry x="560" y="60" width="240" height="60" as="geometry"/>
                </mxCell>
                <mxCell id="4Lb5lxFpENudXAg01q-O-43" value="" style="shape=partialRectangle;html=1;whiteSpace=wrap;collapsible=0;dropTarget=0;pointerEvents=0;fillColor=none;top=0;left=0;bottom=0;right=0;points=[[0,0.5],[1,0.5]];portConstraint=eastwest;labelBackgroundColor=none;fontSize=12;" parent="4Lb5lxFpENudXAg01q-O-42" vertex="1">
                    <mxGeometry y="20" width="240" height="20" as="geometry"/>
                </mxCell>
                <mxCell id="4Lb5lxFpENudXAg01q-O-44" value="Pair id" style="shape=partialRectangle;html=1;whiteSpace=wrap;connectable=0;fillColor=#ffe6cc;top=0;left=0;bottom=0;right=0;overflow=hidden;pointerEvents=1;labelBackgroundColor=none;fontSize=12;strokeColor=#000000;fontStyle=1;strokeWidth=1;" parent="4Lb5lxFpENudXAg01q-O-43" vertex="1">
                    <mxGeometry width="48" height="20" as="geometry">
                        <mxRectangle width="48" height="20" as="alternateBounds"/>
                    </mxGeometry>
                </mxCell>
                <mxCell id="4Lb5lxFpENudXAg01q-O-45" value="def" style="shape=partialRectangle;html=1;whiteSpace=wrap;connectable=0;fillColor=#ffe6cc;top=0;left=0;bottom=0;right=0;overflow=hidden;pointerEvents=1;labelBackgroundColor=none;fontSize=12;strokeColor=#000000;fontStyle=1;strokeWidth=1;" parent="4Lb5lxFpENudXAg01q-O-43" vertex="1">
                    <mxGeometry x="48" width="33" height="20" as="geometry">
                        <mxRectangle width="33" height="20" as="alternateBounds"/>
                    </mxGeometry>
                </mxCell>
                <mxCell id="4Lb5lxFpENudXAg01q-O-46" value="use" style="shape=partialRectangle;html=1;whiteSpace=wrap;connectable=0;fillColor=#ffe6cc;top=0;left=0;bottom=0;right=0;overflow=hidden;pointerEvents=1;labelBackgroundColor=none;fontSize=12;strokeColor=#000000;fontStyle=1;strokeWidth=1;" parent="4Lb5lxFpENudXAg01q-O-43" vertex="1">
                    <mxGeometry x="81" width="39" height="20" as="geometry">
                        <mxRectangle width="39" height="20" as="alternateBounds"/>
                    </mxGeometry>
                </mxCell>
                <mxCell id="4Lb5lxFpENudXAg01q-O-47" value="path" style="shape=partialRectangle;html=1;whiteSpace=wrap;connectable=0;fillColor=#ffe6cc;top=0;left=0;bottom=0;right=0;overflow=hidden;pointerEvents=1;labelBackgroundColor=none;fontSize=12;strokeColor=#000000;fontStyle=1;strokeWidth=1;" parent="4Lb5lxFpENudXAg01q-O-43" vertex="1">
                    <mxGeometry x="120" width="120" height="20" as="geometry">
                        <mxRectangle width="120" height="20" as="alternateBounds"/>
                    </mxGeometry>
                </mxCell>
                <mxCell id="4Lb5lxFpENudXAg01q-O-48" value="" style="shape=partialRectangle;html=1;whiteSpace=wrap;collapsible=0;dropTarget=0;pointerEvents=0;fillColor=none;top=0;left=0;bottom=0;right=0;points=[[0,0.5],[1,0.5]];portConstraint=eastwest;labelBackgroundColor=none;fontSize=12;" parent="4Lb5lxFpENudXAg01q-O-42" vertex="1">
                    <mxGeometry y="40" width="240" height="20" as="geometry"/>
                </mxCell>
                <mxCell id="4Lb5lxFpENudXAg01q-O-49" value="1" style="shape=partialRectangle;html=1;whiteSpace=wrap;connectable=0;fillColor=none;top=0;left=0;bottom=0;right=0;overflow=hidden;pointerEvents=1;labelBackgroundColor=none;fontSize=12;" parent="4Lb5lxFpENudXAg01q-O-48" vertex="1">
                    <mxGeometry width="48" height="20" as="geometry">
                        <mxRectangle width="48" height="20" as="alternateBounds"/>
                    </mxGeometry>
                </mxCell>
                <mxCell id="4Lb5lxFpENudXAg01q-O-50" value="4" style="shape=partialRectangle;html=1;whiteSpace=wrap;connectable=0;fillColor=none;top=0;left=0;bottom=0;right=0;overflow=hidden;pointerEvents=1;labelBackgroundColor=none;fontSize=12;" parent="4Lb5lxFpENudXAg01q-O-48" vertex="1">
                    <mxGeometry x="48" width="33" height="20" as="geometry">
                        <mxRectangle width="33" height="20" as="alternateBounds"/>
                    </mxGeometry>
                </mxCell>
                <mxCell id="4Lb5lxFpENudXAg01q-O-51" value="5" style="shape=partialRectangle;html=1;whiteSpace=wrap;connectable=0;fillColor=none;top=0;left=0;bottom=0;right=0;overflow=hidden;pointerEvents=1;labelBackgroundColor=none;fontSize=12;" parent="4Lb5lxFpENudXAg01q-O-48" vertex="1">
                    <mxGeometry x="81" width="39" height="20" as="geometry">
                        <mxRectangle width="39" height="20" as="alternateBounds"/>
                    </mxGeometry>
                </mxCell>
                <mxCell id="4Lb5lxFpENudXAg01q-O-52" value="&amp;lt;4,5&amp;gt;" style="shape=partialRectangle;html=1;whiteSpace=wrap;connectable=0;fillColor=none;top=0;left=0;bottom=0;right=0;overflow=hidden;pointerEvents=1;labelBackgroundColor=none;fontSize=12;" parent="4Lb5lxFpENudXAg01q-O-48" vertex="1">
                    <mxGeometry x="120" width="120" height="20" as="geometry">
                        <mxRectangle width="120" height="20" as="alternateBounds"/>
                    </mxGeometry>
                </mxCell>
            </root>
        </mxGraphModel>
    </diagram>
</mxfile>